<svg width="375" height="90" viewBox="0 0 375 90" fill="none" xmlns="http://www.w3.org/2000/svg">
<rect width="375" height="90" fill="white"/>
<path fill-rule="evenodd" clip-rule="evenodd" d="M343.544 41.6244H345.752C346.424 41.6244 347 42.2343 347 42.9458V45.9952C347 46.7068 346.424 47.3166 345.752 47.3166H343.544C343.256 47.3166 342.872 47.6216 342.776 47.9265C342.68 48.3331 342.68 48.6381 342.968 48.943L344.6 50.671C344.888 50.8743 344.984 51.2809 344.984 51.5858C344.984 51.8908 344.792 52.2974 344.6 52.5006L342.584 54.6352C342.104 55.1435 341.336 55.1435 340.856 54.6352L339.224 52.9072C338.936 52.6023 338.552 52.6023 338.264 52.7039C337.88 52.8056 337.688 53.1105 337.688 53.5171V55.855C337.688 56.5665 337.112 57.1764 336.44 57.1764H333.56C332.888 57.1764 332.312 56.5665 332.312 55.855V53.5171C332.312 53.2122 332.024 52.8056 331.736 52.7039C331.352 52.6023 331.064 52.6023 330.776 52.9072L329.144 54.6352C328.664 55.1435 327.896 55.1435 327.416 54.6352L325.4 52.5006C325.112 52.2974 325.016 51.8908 325.016 51.5858C325.016 51.2809 325.208 50.8743 325.4 50.671L327.032 48.943C327.32 48.6381 327.32 48.2315 327.224 47.9265C327.128 47.5199 326.84 47.3166 326.456 47.3166H324.248C323.576 47.3166 323 46.7068 323 45.9952V42.9458C323 42.2343 323.576 41.6244 324.248 41.6244H326.456C326.744 41.6244 327.128 41.3195 327.224 41.0145C327.32 40.6079 327.32 40.303 327.032 39.9981L325.4 38.2701C325.112 38.0668 325.016 37.6602 325.016 37.3552C325.016 37.0503 325.208 36.6437 325.4 36.4404L327.416 34.3058C327.896 33.7976 328.664 33.7976 329.144 34.3058L330.776 36.0338C331.064 36.3388 331.448 36.3388 331.736 36.2371C332.12 36.1355 332.312 35.8305 332.312 35.4239V33.0861C332.312 32.3745 332.888 31.7646 333.56 31.7646H336.44C337.112 31.7646 337.688 32.3745 337.688 33.0861V35.4239C337.688 35.7289 337.976 36.1355 338.264 36.2371C338.648 36.3388 338.936 36.3388 339.224 36.0338L340.856 34.3058C341.336 33.7976 342.104 33.7976 342.584 34.3058L344.6 36.4404C344.888 36.6437 344.984 37.0503 344.984 37.3552C344.984 37.6602 344.792 38.0668 344.6 38.2701L342.968 39.9981C342.68 40.303 342.68 40.7096 342.776 41.0145C342.872 41.4211 343.16 41.6244 343.544 41.6244ZM345.752 46.4019C345.944 46.4019 346.136 46.1986 346.136 45.9953V42.9459C346.136 42.7426 345.944 42.5393 345.752 42.5393H343.544C342.776 42.5393 342.2 42.1327 341.912 41.4211C341.624 40.7096 341.816 39.8964 342.296 39.3882L343.928 37.6602C344.024 37.5586 344.024 37.2536 343.928 37.152L341.912 35.0174C341.816 34.9157 341.528 34.9157 341.432 35.0174L339.8 36.7454C339.32 37.2536 338.552 37.4569 337.88 37.152C337.208 36.847 336.824 36.2371 336.824 35.424V33.0861C336.824 32.8828 336.632 32.6795 336.44 32.6795H333.56C333.368 32.6795 333.176 32.8828 333.176 33.0861V35.424C333.176 36.2371 332.792 36.847 332.12 37.152C331.448 37.4569 330.68 37.2536 330.2 36.7454L328.568 35.0174C328.472 34.9157 328.184 34.9157 328.088 35.0174L326.072 37.152C325.976 37.2536 325.976 37.5586 326.072 37.6602L327.704 39.3882C328.184 39.8964 328.376 40.7096 328.088 41.4211C327.8 42.1327 327.224 42.5393 326.456 42.5393H324.248C324.056 42.5393 323.864 42.7426 323.864 42.9459V45.9953C323.864 46.1986 324.056 46.4019 324.248 46.4019H326.456C327.224 46.4019 327.8 46.8084 328.088 47.52C328.376 48.2315 328.184 49.0447 327.704 49.5529L326.072 51.2809C325.976 51.3826 325.976 51.6875 326.072 51.7892L328.088 53.9237C328.184 54.0254 328.472 54.0254 328.568 53.9237L330.2 52.1957C330.584 51.8908 330.968 51.6875 331.448 51.6875C331.64 51.6875 331.928 51.6875 332.12 51.7892C332.792 52.0941 333.176 52.704 333.176 53.5171V55.855C333.176 56.0583 333.368 56.2616 333.56 56.2616H336.44C336.632 56.2616 336.824 56.0583 336.824 55.855V53.5171C336.824 52.704 337.208 52.0941 337.88 51.7892C338.552 51.4842 339.32 51.6875 339.8 52.1957L341.432 53.9237C341.528 54.0254 341.816 54.0254 341.912 53.9237L343.928 51.7892C344.024 51.6875 344.024 51.3826 343.928 51.2809L342.296 49.5529C341.816 49.0447 341.624 48.2315 341.912 47.52C342.2 46.8084 342.776 46.4019 343.544 46.4019H345.752Z" fill="#CDD0E3"/>
<path d="M342.776 47.9265L342.299 47.7764L342.294 47.7938L342.289 47.8116L342.776 47.9265ZM342.968 48.943L343.332 48.5997L342.968 48.943ZM344.6 50.671L344.236 51.0143L344.271 51.0507L344.312 51.0795L344.6 50.671ZM344.6 52.5006L344.236 52.1573V52.1573L344.6 52.5006ZM342.584 54.6352L342.948 54.9785L342.584 54.6352ZM340.856 54.6352L340.492 54.9785L340.856 54.6352ZM339.224 52.9072L339.588 52.5639L339.224 52.9072ZM338.264 52.7039L338.392 53.1873L338.411 53.1821L338.43 53.1754L338.264 52.7039ZM331.736 52.7039L331.902 52.2324L331.883 52.2257L331.864 52.2206L331.736 52.7039ZM330.776 52.9072L330.412 52.5639H330.412L330.776 52.9072ZM329.144 54.6352L329.508 54.9785H329.508L329.144 54.6352ZM327.416 54.6352L327.052 54.9785H327.052L327.416 54.6352ZM325.4 52.5006L325.764 52.1573L325.729 52.121L325.688 52.0922L325.4 52.5006ZM325.4 50.671L325.036 50.3277H325.036L325.4 50.671ZM327.032 48.943L326.668 48.5997L327.032 48.943ZM327.224 47.9265L326.737 48.0414L326.742 48.0592L326.747 48.0767L327.224 47.9265ZM327.224 41.0145L327.701 41.1647L327.706 41.1472L327.711 41.1294L327.224 41.0145ZM327.032 39.9981L326.668 40.3414L327.032 39.9981ZM325.4 38.2701L325.764 37.9267L325.729 37.8904L325.688 37.8616L325.4 38.2701ZM325.4 36.4404L325.764 36.7837H325.764L325.4 36.4404ZM327.416 34.3058L327.78 34.6491L327.416 34.3058ZM329.144 34.3058L328.78 34.6491L329.144 34.3058ZM330.776 36.0338L330.412 36.3771H330.412L330.776 36.0338ZM331.736 36.2371L331.608 35.7538L331.589 35.7589L331.57 35.7656L331.736 36.2371ZM338.264 36.2371L338.098 36.7086L338.117 36.7153L338.136 36.7205L338.264 36.2371ZM339.224 36.0338L339.588 36.3771L339.224 36.0338ZM340.856 34.3058L341.22 34.6491V34.6491L340.856 34.3058ZM342.584 34.3058L342.22 34.6491V34.6491L342.584 34.3058ZM344.6 36.4404L344.236 36.7837L344.271 36.8201L344.312 36.8489L344.6 36.4404ZM344.6 38.2701L344.964 38.6134V38.6134L344.6 38.2701ZM342.968 39.9981L343.332 40.3414L342.968 39.9981ZM342.776 41.0145L343.263 40.8996L343.258 40.8818L343.253 40.8644L342.776 41.0145ZM342.296 39.3882L341.933 39.0449L342.296 39.3882ZM343.928 37.6602L343.565 37.3169L343.565 37.3169L343.928 37.6602ZM343.928 37.152L343.565 37.4953V37.4953L343.928 37.152ZM341.912 35.0174L342.276 34.6741V34.6741L341.912 35.0174ZM341.432 35.0174L341.069 34.6741V34.6741L341.432 35.0174ZM339.8 36.7454L340.164 37.0887V37.0887L339.8 36.7454ZM330.2 36.7454L330.564 36.4021L330.2 36.7454ZM328.568 35.0174L328.932 34.6741L328.932 34.6741L328.568 35.0174ZM328.088 35.0174L327.725 34.6741L327.725 34.6741L328.088 35.0174ZM326.072 37.152L325.709 36.8087L325.709 36.8087L326.072 37.152ZM326.072 37.6602L326.436 37.3169H326.436L326.072 37.6602ZM327.704 39.3882L328.068 39.0449L327.704 39.3882ZM327.704 49.5529L328.068 49.8962L327.704 49.5529ZM326.072 51.2809L325.709 50.9376L325.709 50.9376L326.072 51.2809ZM326.072 51.7892L325.709 52.1325L325.709 52.1325L326.072 51.7892ZM328.088 53.9237L327.725 54.267L327.725 54.267L328.088 53.9237ZM328.568 53.9237L328.932 54.267L328.932 54.267L328.568 53.9237ZM330.2 52.1957L329.889 51.8042L329.861 51.8264L329.837 51.8524L330.2 52.1957ZM332.12 51.7892L331.886 52.231L331.9 52.2382L331.913 52.2445L332.12 51.7892ZM339.8 52.1957L340.164 51.8524V51.8524L339.8 52.1957ZM341.432 53.9237L341.069 54.267L341.069 54.267L341.432 53.9237ZM341.912 53.9237L342.276 54.267L342.276 54.267L341.912 53.9237ZM343.928 51.7892L344.292 52.1325H344.292L343.928 51.7892ZM343.928 51.2809L344.292 50.9376H344.292L343.928 51.2809ZM342.296 49.5529L341.933 49.8962L342.296 49.5529ZM345.752 41.1244H343.544V42.1244H345.752V41.1244ZM347.5 42.9458C347.5 41.9855 346.727 41.1244 345.752 41.1244V42.1244C346.121 42.1244 346.5 42.4831 346.5 42.9458H347.5ZM347.5 45.9952V42.9458H346.5V45.9952H347.5ZM345.752 47.8167C346.727 47.8167 347.5 46.9556 347.5 45.9952H346.5C346.5 46.4579 346.121 46.8166 345.752 46.8166V47.8167ZM343.544 47.8167H345.752V46.8166H343.544V47.8167ZM343.253 48.0767C343.262 48.047 343.307 47.9719 343.399 47.8988C343.44 47.8658 343.48 47.8425 343.513 47.8288C343.547 47.8142 343.557 47.8167 343.544 47.8167V46.8166C343.244 46.8166 342.968 46.9641 342.777 47.1157C342.581 47.2713 342.386 47.5011 342.299 47.7764L343.253 48.0767ZM343.332 48.5997C343.251 48.5148 343.231 48.4549 343.223 48.401C343.212 48.3298 343.219 48.2253 343.263 48.0414L342.289 47.8116C342.237 48.0343 342.196 48.2857 342.233 48.5448C342.273 48.8213 342.397 49.0663 342.604 49.2863L343.332 48.5997ZM344.964 50.3277L343.332 48.5997L342.604 49.2863L344.236 51.0143L344.964 50.3277ZM345.484 51.5858C345.484 51.2276 345.378 50.6085 344.888 50.2625L344.312 51.0795C344.348 51.1049 344.393 51.1589 344.43 51.261C344.467 51.3622 344.484 51.4808 344.484 51.5858H345.484ZM344.964 52.844C345.109 52.6902 345.234 52.4848 345.322 52.2811C345.41 52.0795 345.484 51.8311 345.484 51.5858H344.484C344.484 51.6455 344.462 51.7528 344.406 51.8816C344.35 52.0083 344.283 52.1078 344.236 52.1573L344.964 52.844ZM342.948 54.9785L344.964 52.844L344.236 52.1573L342.22 54.2919L342.948 54.9785ZM340.492 54.9785C341.17 55.6957 342.27 55.6957 342.948 54.9785L342.22 54.2919C341.938 54.5912 341.502 54.5912 341.22 54.2919L340.492 54.9785ZM338.86 53.2505L340.492 54.9785L341.22 54.2919L339.588 52.5639L338.86 53.2505ZM338.43 53.1754C338.512 53.1465 338.597 53.1366 338.669 53.1475C338.734 53.1573 338.798 53.1846 338.86 53.2505L339.588 52.5639C339.119 52.0683 338.502 52.0896 338.098 52.2324L338.43 53.1754ZM338.188 53.5171C338.188 53.3908 338.218 53.3178 338.244 53.2793C338.267 53.2462 338.306 53.2101 338.392 53.1873L338.136 52.2206C337.838 52.2994 337.589 52.4666 337.42 52.7131C337.254 52.954 337.188 53.2369 337.188 53.5171H338.188ZM338.188 55.855V53.5171H337.188V55.855H338.188ZM336.44 57.6764C337.415 57.6764 338.188 56.8154 338.188 55.855H337.188C337.188 56.3177 336.809 56.6764 336.44 56.6764V57.6764ZM333.56 57.6764H336.44V56.6764H333.56V57.6764ZM331.812 55.855C331.812 56.8154 332.585 57.6764 333.56 57.6764V56.6764C333.191 56.6764 332.812 56.3177 332.812 55.855H331.812ZM331.812 53.5171V55.855H332.812V53.5171H331.812ZM331.57 53.1754C331.569 53.1752 331.574 53.177 331.585 53.1834C331.595 53.1896 331.608 53.1991 331.624 53.2125C331.657 53.24 331.692 53.278 331.724 53.3233C331.756 53.3687 331.78 53.4143 331.795 53.4539C331.803 53.4733 331.807 53.4891 331.81 53.5008C331.812 53.5126 331.812 53.5179 331.812 53.5171H332.812C332.812 53.2253 332.683 52.9473 332.54 52.7453C332.397 52.5432 332.177 52.3295 331.902 52.2324L331.57 53.1754ZM331.14 53.2505C331.22 53.165 331.269 53.1518 331.3 53.1466C331.351 53.1383 331.437 53.142 331.608 53.1873L331.864 52.2206C331.651 52.1642 331.401 52.1171 331.14 52.1596C330.859 52.2053 330.62 52.3445 330.412 52.5639L331.14 53.2505ZM329.508 54.9785L331.14 53.2505L330.412 52.5639L328.78 54.2919L329.508 54.9785ZM327.052 54.9785C327.73 55.6957 328.83 55.6957 329.508 54.9785L328.78 54.2919C328.498 54.5912 328.062 54.5912 327.78 54.2919L327.052 54.9785ZM325.036 52.844L327.052 54.9785L327.78 54.2919L325.764 52.1573L325.036 52.844ZM324.516 51.5858C324.516 51.944 324.622 52.5632 325.112 52.9091L325.688 52.0922C325.652 52.0667 325.607 52.0127 325.57 51.9106C325.533 51.8094 325.516 51.6908 325.516 51.5858H324.516ZM325.036 50.3277C324.891 50.4815 324.766 50.6869 324.678 50.8905C324.59 51.0921 324.516 51.3406 324.516 51.5858H325.516C325.516 51.5261 325.538 51.4188 325.594 51.2901C325.65 51.1633 325.717 51.0638 325.764 51.0143L325.036 50.3277ZM326.668 48.5997L325.036 50.3277L325.764 51.0143L327.396 49.2863L326.668 48.5997ZM326.747 48.0767C326.812 48.2816 326.787 48.474 326.668 48.5997L327.396 49.2863C327.853 48.8021 327.828 48.1813 327.701 47.7764L326.747 48.0767ZM326.456 47.8167C326.559 47.8167 326.614 47.843 326.643 47.8653C326.67 47.8862 326.711 47.9318 326.737 48.0414L327.711 47.8116C327.641 47.5147 327.49 47.2553 327.253 47.073C327.018 46.8919 326.737 46.8166 326.456 46.8166V47.8167ZM324.248 47.8167H326.456V46.8166H324.248V47.8167ZM322.5 45.9952C322.5 46.9556 323.273 47.8167 324.248 47.8167V46.8166C323.879 46.8166 323.5 46.4579 323.5 45.9952H322.5ZM322.5 42.9458V45.9952H323.5V42.9458H322.5ZM324.248 41.1244C323.273 41.1244 322.5 41.9855 322.5 42.9458H323.5C323.5 42.4831 323.879 42.1244 324.248 42.1244V41.1244ZM326.456 41.1244H324.248V42.1244H326.456V41.1244ZM326.747 40.8644C326.738 40.8941 326.693 40.9692 326.601 41.0423C326.56 41.0752 326.52 41.0985 326.487 41.1123C326.453 41.1269 326.443 41.1244 326.456 41.1244V42.1244C326.756 42.1244 327.032 41.9769 327.223 41.8254C327.419 41.6697 327.614 41.4399 327.701 41.1647L326.747 40.8644ZM326.668 40.3414C326.749 40.4263 326.769 40.4862 326.777 40.5401C326.788 40.6113 326.781 40.7157 326.737 40.8996L327.711 41.1294C327.763 40.9068 327.804 40.6554 327.767 40.3963C327.727 40.1198 327.603 39.8748 327.396 39.6547L326.668 40.3414ZM325.036 38.6134L326.668 40.3414L327.396 39.6547L325.764 37.9267L325.036 38.6134ZM324.516 37.3552C324.516 37.7134 324.622 38.3326 325.112 38.6785L325.688 37.8616C325.652 37.8361 325.607 37.7821 325.57 37.6801C325.533 37.5788 325.516 37.4602 325.516 37.3552H324.516ZM325.036 36.0971C324.891 36.2509 324.766 36.4563 324.678 36.6599C324.59 36.8615 324.516 37.11 324.516 37.3552H325.516C325.516 37.2956 325.538 37.1882 325.594 37.0595C325.65 36.9328 325.717 36.8332 325.764 36.7837L325.036 36.0971ZM327.052 33.9625L325.036 36.0971L325.764 36.7837L327.78 34.6491L327.052 33.9625ZM329.508 33.9625C328.83 33.2454 327.73 33.2454 327.052 33.9625L327.78 34.6491C328.062 34.3498 328.498 34.3498 328.78 34.6491L329.508 33.9625ZM331.14 35.6905L329.508 33.9625L328.78 34.6491L330.412 36.3771L331.14 35.6905ZM331.57 35.7656C331.488 35.7945 331.403 35.8045 331.331 35.7936C331.266 35.7837 331.202 35.7565 331.14 35.6905L330.412 36.3771C330.881 36.8728 331.498 36.8515 331.902 36.7086L331.57 35.7656ZM331.812 35.4239C331.812 35.5503 331.782 35.6232 331.756 35.6618C331.733 35.6949 331.694 35.7309 331.608 35.7538L331.864 36.7205C332.162 36.6416 332.411 36.4744 332.58 36.228C332.746 35.987 332.812 35.7042 332.812 35.4239H331.812ZM331.812 33.0861V35.4239H332.812V33.0861H331.812ZM333.56 31.2646C332.585 31.2646 331.812 32.1257 331.812 33.0861H332.812C332.812 32.6234 333.191 32.2646 333.56 32.2646V31.2646ZM336.44 31.2646H333.56V32.2646H336.44V31.2646ZM338.188 33.0861C338.188 32.1257 337.415 31.2646 336.44 31.2646V32.2646C336.809 32.2646 337.188 32.6234 337.188 33.0861H338.188ZM338.188 35.4239V33.0861H337.188V35.4239H338.188ZM338.43 35.7656C338.431 35.7658 338.426 35.764 338.415 35.7577C338.405 35.7515 338.392 35.742 338.376 35.7285C338.343 35.7011 338.308 35.6631 338.276 35.6178C338.244 35.5724 338.22 35.5267 338.205 35.4872C338.197 35.4678 338.193 35.452 338.19 35.4403C338.188 35.4284 338.188 35.4231 338.188 35.4239H337.188C337.188 35.7158 337.317 35.9937 337.46 36.1958C337.603 36.3979 337.823 36.6115 338.098 36.7086L338.43 35.7656ZM338.86 35.6905C338.78 35.776 338.731 35.7893 338.7 35.7944C338.649 35.8027 338.563 35.7991 338.392 35.7538L338.136 36.7205C338.349 36.7768 338.599 36.824 338.86 36.7814C339.141 36.7358 339.38 36.5966 339.588 36.3771L338.86 35.6905ZM340.492 33.9625L338.86 35.6905L339.588 36.3771L341.22 34.6491L340.492 33.9625ZM342.948 33.9625C342.27 33.2454 341.17 33.2454 340.492 33.9625L341.22 34.6491C341.502 34.3498 341.938 34.3498 342.22 34.6491L342.948 33.9625ZM344.964 36.0971L342.948 33.9625L342.22 34.6491L344.236 36.7837L344.964 36.0971ZM345.484 37.3552C345.484 36.9971 345.378 36.3779 344.888 36.0319L344.312 36.8489C344.348 36.8743 344.393 36.9284 344.43 37.0304C344.467 37.1316 344.484 37.2503 344.484 37.3552H345.484ZM344.964 38.6134C345.109 38.4596 345.234 38.2542 345.322 38.0506C345.41 37.8489 345.484 37.6005 345.484 37.3552H344.484C344.484 37.4149 344.462 37.5222 344.406 37.651C344.35 37.7777 344.283 37.8773 344.236 37.9267L344.964 38.6134ZM343.332 40.3414L344.964 38.6134L344.236 37.9267L342.604 39.6547L343.332 40.3414ZM343.253 40.8644C343.188 40.6594 343.213 40.467 343.332 40.3414L342.604 39.6547C342.147 40.139 342.172 40.7597 342.299 41.1647L343.253 40.8644ZM343.544 41.1244C343.441 41.1244 343.386 41.0981 343.357 41.0758C343.33 41.0549 343.289 41.0093 343.263 40.8996L342.289 41.1294C342.359 41.4264 342.51 41.6857 342.747 41.8681C342.982 42.0491 343.263 42.1244 343.544 42.1244V41.1244ZM345.636 45.9953C345.636 45.9677 345.642 45.95 345.645 45.9429C345.649 45.9358 345.651 45.9328 345.653 45.9315C345.654 45.9303 345.659 45.9249 345.672 45.9187C345.684 45.9124 345.712 45.9019 345.752 45.9019V46.9019C346.021 46.9019 346.241 46.7653 346.38 46.6181C346.52 46.4691 346.636 46.2497 346.636 45.9953H345.636ZM345.636 42.9459V45.9953H346.636V42.9459H345.636ZM345.752 43.0393C345.712 43.0393 345.684 43.0288 345.672 43.0225C345.659 43.0162 345.654 43.0108 345.653 43.0096C345.651 43.0083 345.649 43.0053 345.645 42.9982C345.642 42.9911 345.636 42.9735 345.636 42.9459H346.636C346.636 42.6914 346.52 42.472 346.38 42.323C346.241 42.1758 346.021 42.0393 345.752 42.0393V43.0393ZM343.544 43.0393H345.752V42.0393H343.544V43.0393ZM341.449 41.6087C341.81 42.5006 342.563 43.0393 343.544 43.0393V42.0393C342.989 42.0393 342.59 41.7647 342.375 41.2336L341.449 41.6087ZM341.933 39.0449C341.326 39.6874 341.083 40.7061 341.449 41.6087L342.375 41.2336C342.165 40.7132 342.306 40.1055 342.66 39.7315L341.933 39.0449ZM343.565 37.3169L341.933 39.0449L342.66 39.7315L344.292 38.0035L343.565 37.3169ZM343.565 37.4953C343.535 37.4637 343.519 37.4352 343.511 37.4198C343.503 37.4038 343.5 37.3931 343.499 37.3902C343.498 37.3857 343.5 37.3919 343.5 37.4061C343.5 37.4203 343.498 37.4265 343.499 37.4219C343.5 37.4191 343.503 37.4084 343.511 37.3924C343.519 37.377 343.535 37.3485 343.565 37.3169L344.292 38.0035C344.394 37.8946 344.442 37.7684 344.465 37.6825C344.49 37.589 344.5 37.4936 344.5 37.4061C344.5 37.3186 344.49 37.2232 344.465 37.1297C344.442 37.0438 344.394 36.9176 344.292 36.8087L343.565 37.4953ZM341.549 35.3607L343.565 37.4953L344.292 36.8087L342.276 34.6741L341.549 35.3607ZM341.796 35.3607C341.739 35.421 341.685 35.437 341.679 35.4388C341.667 35.4424 341.665 35.4411 341.672 35.4411C341.679 35.4411 341.677 35.4424 341.665 35.4388C341.659 35.437 341.606 35.421 341.549 35.3607L342.276 34.6741C342.171 34.5629 342.045 34.5089 341.955 34.4816C341.859 34.4526 341.761 34.4411 341.672 34.4411C341.583 34.4411 341.485 34.4526 341.389 34.4816C341.299 34.5089 341.174 34.5629 341.069 34.6741L341.796 35.3607ZM340.164 37.0887L341.796 35.3607L341.069 34.6741L339.437 36.4021L340.164 37.0887ZM337.673 37.6073C338.561 38.0101 339.554 37.7345 340.164 37.0887L339.437 36.4021C339.086 36.7728 338.543 36.9037 338.087 36.6967L337.673 37.6073ZM336.324 35.424C336.324 36.4169 336.808 37.2147 337.673 37.6073L338.087 36.6967C337.608 36.4793 337.324 36.0573 337.324 35.424H336.324ZM336.324 33.0861V35.424H337.324V33.0861H336.324ZM336.44 33.1795C336.4 33.1795 336.372 33.169 336.36 33.1627C336.347 33.1564 336.342 33.1511 336.341 33.1499C336.339 33.1485 336.337 33.1456 336.333 33.1384C336.33 33.1313 336.324 33.1137 336.324 33.0861H337.324C337.324 32.8317 337.208 32.6123 337.068 32.4632C336.929 32.3161 336.709 32.1795 336.44 32.1795V33.1795ZM333.56 33.1795H336.44V32.1795H333.56V33.1795ZM333.676 33.0861C333.676 33.1137 333.67 33.1313 333.667 33.1384C333.663 33.1456 333.661 33.1485 333.66 33.1499C333.658 33.1511 333.653 33.1564 333.641 33.1627C333.628 33.169 333.6 33.1795 333.56 33.1795V32.1795C333.291 32.1795 333.072 32.3161 332.933 32.4632C332.792 32.6123 332.676 32.8317 332.676 33.0861H333.676ZM333.676 35.424V33.0861H332.676V35.424H333.676ZM332.327 37.6073C333.192 37.2147 333.676 36.4169 333.676 35.424H332.676C332.676 36.0573 332.392 36.4793 331.913 36.6967L332.327 37.6073ZM329.837 37.0887C330.446 37.7345 331.439 38.0101 332.327 37.6073L331.913 36.6967C331.457 36.9037 330.914 36.7728 330.564 36.4021L329.837 37.0887ZM328.205 35.3607L329.837 37.0887L330.564 36.4021L328.932 34.6741L328.205 35.3607ZM328.452 35.3607C328.395 35.421 328.341 35.437 328.335 35.4388C328.323 35.4424 328.321 35.4411 328.328 35.4411C328.335 35.4411 328.333 35.4424 328.321 35.4388C328.315 35.437 328.262 35.421 328.205 35.3607L328.932 34.6741C328.827 34.5629 328.701 34.5089 328.611 34.4816C328.515 34.4526 328.417 34.4411 328.328 34.4411C328.239 34.4411 328.141 34.4526 328.045 34.4816C327.955 34.5089 327.83 34.5629 327.725 34.6741L328.452 35.3607ZM326.436 37.4953L328.452 35.3607L327.725 34.6741L325.709 36.8087L326.436 37.4953ZM326.436 37.3169C326.465 37.3485 326.481 37.377 326.489 37.3924C326.497 37.4084 326.5 37.4191 326.501 37.4219C326.502 37.4265 326.5 37.4203 326.5 37.4061C326.5 37.3919 326.502 37.3857 326.501 37.3902C326.5 37.3931 326.497 37.4038 326.489 37.4198C326.481 37.4352 326.465 37.4637 326.436 37.4953L325.709 36.8087C325.606 36.9176 325.558 37.0438 325.535 37.1297C325.51 37.2232 325.5 37.3186 325.5 37.4061C325.5 37.4936 325.51 37.589 325.535 37.6825C325.558 37.7684 325.606 37.8946 325.709 38.0035L326.436 37.3169ZM328.068 39.0449L326.436 37.3169L325.709 38.0035L327.341 39.7315L328.068 39.0449ZM328.551 41.6087C328.917 40.7061 328.674 39.6874 328.068 39.0449L327.341 39.7315C327.694 40.1055 327.835 40.7132 327.625 41.2336L328.551 41.6087ZM326.456 43.0393C327.437 43.0393 328.19 42.5006 328.551 41.6087L327.625 41.2336C327.41 41.7647 327.011 42.0393 326.456 42.0393V43.0393ZM324.248 43.0393H326.456V42.0393H324.248V43.0393ZM324.364 42.9459C324.364 42.9735 324.358 42.9911 324.355 42.9982C324.351 43.0053 324.349 43.0083 324.348 43.0096C324.346 43.0108 324.341 43.0162 324.329 43.0225C324.316 43.0288 324.288 43.0393 324.248 43.0393V42.0393C323.979 42.0393 323.76 42.1758 323.621 42.323C323.48 42.472 323.364 42.6914 323.364 42.9459H324.364ZM324.364 45.9953V42.9459H323.364V45.9953H324.364ZM324.248 45.9019C324.288 45.9019 324.316 45.9124 324.329 45.9186C324.341 45.9249 324.346 45.9303 324.348 45.9315C324.349 45.9328 324.351 45.9358 324.355 45.9429C324.358 45.95 324.364 45.9677 324.364 45.9953H323.364C323.364 46.2497 323.48 46.4691 323.621 46.6181C323.76 46.7653 323.979 46.9019 324.248 46.9019V45.9019ZM326.456 45.9019H324.248V46.9019H326.456V45.9019ZM328.551 47.3324C328.19 46.4405 327.437 45.9019 326.456 45.9019V46.9019C327.011 46.9019 327.41 47.1764 327.625 47.7076L328.551 47.3324ZM328.068 49.8962C328.674 49.2537 328.917 48.2351 328.551 47.3324L327.625 47.7076C327.835 48.2279 327.694 48.8357 327.341 49.2096L328.068 49.8962ZM326.436 51.6242L328.068 49.8962L327.341 49.2096L325.709 50.9376L326.436 51.6242ZM326.436 51.4458C326.465 51.4775 326.481 51.5059 326.489 51.5213C326.497 51.5373 326.5 51.548 326.501 51.5509C326.502 51.5554 326.5 51.5492 326.5 51.535C326.5 51.5208 326.502 51.5146 326.501 51.5192C326.5 51.522 326.497 51.5327 326.489 51.5488C326.481 51.5642 326.465 51.5926 326.436 51.6242L325.709 50.9376C325.606 51.0465 325.558 51.1728 325.535 51.2587C325.51 51.3522 325.5 51.4476 325.5 51.535C325.5 51.6225 325.51 51.7179 325.535 51.8114C325.558 51.8973 325.606 52.0235 325.709 52.1325L326.436 51.4458ZM328.452 53.5804L326.436 51.4458L325.709 52.1325L327.725 54.267L328.452 53.5804ZM328.205 53.5804C328.262 53.5201 328.315 53.5042 328.321 53.5023C328.333 53.4988 328.335 53.5 328.328 53.5C328.321 53.5 328.323 53.4988 328.335 53.5023C328.341 53.5042 328.395 53.5201 328.452 53.5804L327.725 54.267C327.83 54.3782 327.955 54.4323 328.045 54.4595C328.141 54.4885 328.239 54.5 328.328 54.5C328.417 54.5 328.515 54.4885 328.611 54.4595C328.701 54.4323 328.827 54.3782 328.932 54.267L328.205 53.5804ZM329.837 51.8524L328.205 53.5804L328.932 54.267L330.564 52.539L329.837 51.8524ZM331.448 51.1875C330.808 51.1875 330.315 51.4658 329.889 51.8042L330.511 52.5873C330.853 52.3158 331.128 52.1875 331.448 52.1875V51.1875ZM332.354 51.3473C332.175 51.2527 331.982 51.2183 331.837 51.203C331.687 51.1871 331.541 51.1875 331.448 51.1875V52.1875C331.547 52.1875 331.641 52.1879 331.731 52.1974C331.826 52.2075 331.873 52.224 331.886 52.231L332.354 51.3473ZM333.676 53.5171C333.676 52.5242 333.192 51.7264 332.327 51.3338L331.913 52.2445C332.392 52.4618 332.676 52.8838 332.676 53.5171H333.676ZM333.676 55.855V53.5171H332.676V55.855H333.676ZM333.56 55.7616C333.6 55.7616 333.628 55.7721 333.641 55.7784C333.653 55.7847 333.658 55.79 333.66 55.7912C333.661 55.7926 333.663 55.7956 333.667 55.8027C333.67 55.8098 333.676 55.8274 333.676 55.855H332.676C332.676 56.1095 332.792 56.3288 332.933 56.4779C333.072 56.6251 333.291 56.7616 333.56 56.7616V55.7616ZM336.44 55.7616H333.56V56.7616H336.44V55.7616ZM336.324 55.855C336.324 55.8274 336.33 55.8098 336.333 55.8027C336.337 55.7956 336.339 55.7926 336.341 55.7912C336.342 55.79 336.347 55.7847 336.36 55.7784C336.372 55.7721 336.4 55.7616 336.44 55.7616V56.7616C336.709 56.7616 336.929 56.6251 337.068 56.4779C337.208 56.3288 337.324 56.1095 337.324 55.855H336.324ZM336.324 53.5171V55.855H337.324V53.5171H336.324ZM337.673 51.3338C336.808 51.7264 336.324 52.5242 336.324 53.5171H337.324C337.324 52.8838 337.608 52.4618 338.087 52.2445L337.673 51.3338ZM340.164 51.8524C339.554 51.2066 338.561 50.931 337.673 51.3338L338.087 52.2445C338.543 52.0374 339.086 52.1684 339.437 52.539L340.164 51.8524ZM341.796 53.5804L340.164 51.8524L339.437 52.539L341.069 54.267L341.796 53.5804ZM341.549 53.5804C341.606 53.5201 341.659 53.5042 341.665 53.5023C341.677 53.4988 341.679 53.5 341.672 53.5C341.665 53.5 341.667 53.4988 341.679 53.5023C341.685 53.5042 341.739 53.5201 341.796 53.5804L341.069 54.267C341.174 54.3782 341.299 54.4323 341.389 54.4595C341.485 54.4885 341.583 54.5 341.672 54.5C341.761 54.5 341.859 54.4885 341.955 54.4595C342.045 54.4323 342.171 54.3782 342.276 54.267L341.549 53.5804ZM343.565 51.4458L341.549 53.5804L342.276 54.267L344.292 52.1325L343.565 51.4458ZM343.565 51.6242C343.535 51.5926 343.519 51.5642 343.511 51.5488C343.503 51.5327 343.5 51.522 343.499 51.5192C343.498 51.5146 343.5 51.5208 343.5 51.535C343.5 51.5492 343.498 51.5554 343.499 51.5509C343.5 51.548 343.503 51.5373 343.511 51.5213C343.519 51.5059 343.535 51.4775 343.565 51.4458L344.292 52.1325C344.394 52.0235 344.442 51.8973 344.465 51.8114C344.49 51.7179 344.5 51.6225 344.5 51.535C344.5 51.4476 344.49 51.3522 344.465 51.2587C344.442 51.1728 344.394 51.0465 344.292 50.9376L343.565 51.6242ZM341.933 49.8962L343.565 51.6242L344.292 50.9376L342.66 49.2096L341.933 49.8962ZM341.449 47.3324C341.083 48.2351 341.326 49.2537 341.933 49.8962L342.66 49.2096C342.306 48.8357 342.165 48.228 342.375 47.7076L341.449 47.3324ZM343.544 45.9019C342.563 45.9019 341.81 46.4405 341.449 47.3324L342.375 47.7076C342.59 47.1764 342.989 46.9019 343.544 46.9019V45.9019ZM345.752 45.9019H343.544V46.9019H345.752V45.9019Z" fill="#CDD0E3"/>
<path fill-rule="evenodd" clip-rule="evenodd" d="M330.968 44.4705C330.968 42.1326 332.792 40.2013 335 40.2013C337.208 40.2013 339.032 42.1326 339.032 44.4705C339.032 46.8084 337.208 48.7396 335 48.7396C332.792 48.7396 330.968 46.8084 330.968 44.4705ZM331.928 44.4705C331.928 46.1985 333.272 47.7232 335 47.7232C336.728 47.7232 338.072 46.1985 338.072 44.4705C338.072 42.7425 336.632 41.2178 335 41.2178C333.368 41.2178 331.928 42.7425 331.928 44.4705Z" fill="#CDD0E3"/>
<path d="M335 39.9133C332.618 39.9133 330.68 41.9893 330.68 44.4705H331.256C331.256 42.2759 332.966 40.4893 335 40.4893V39.9133ZM339.32 44.4705C339.32 41.9893 337.382 39.9133 335 39.9133V40.4893C337.034 40.4893 338.744 42.2759 338.744 44.4705H339.32ZM335 49.0276C337.382 49.0276 339.32 46.9517 339.32 44.4705H338.744C338.744 46.665 337.034 48.4516 335 48.4516V49.0276ZM330.68 44.4705C330.68 46.9517 332.618 49.0276 335 49.0276V48.4516C332.966 48.4516 331.256 46.665 331.256 44.4705H330.68ZM335 47.4352C333.452 47.4352 332.216 46.0612 332.216 44.4705H331.64C331.64 46.3358 333.092 48.0112 335 48.0112V47.4352ZM337.784 44.4705C337.784 46.0612 336.548 47.4352 335 47.4352V48.0112C336.908 48.0112 338.36 46.3358 338.36 44.4705H337.784ZM335 41.5058C336.458 41.5058 337.784 42.8858 337.784 44.4705H338.36C338.36 42.5992 336.806 40.9298 335 40.9298V41.5058ZM332.216 44.4705C332.216 42.8858 333.542 41.5058 335 41.5058V40.9298C333.194 40.9298 331.64 42.5992 331.64 44.4705H332.216Z" fill="#CDD0E3"/>
<path d="M147.55 35.393V46.0229C147.55 46.9354 147.276 47.824 146.768 48.5603C146.26 49.2965 145.545 49.8421 144.725 50.1182C143.906 50.3942 143.025 50.3864 142.21 50.0958C141.395 49.8052 140.689 49.2469 140.193 48.5018C139.696 47.7566 139.437 46.8632 139.451 45.9508C139.464 45.0385 139.752 44.1545 140.27 43.4268C140.789 42.6992 141.512 42.1655 142.336 41.9032C143.159 41.6409 144.04 41.6634 144.85 41.9675V31.7646C151.672 32.4826 157 38.5929 157 46.0229C157 53.9373 150.956 60.3528 143.5 60.3528C136.044 60.3528 130 53.9373 130 46.0229C130 38.5929 135.328 32.4826 142.15 31.7646V34.6478C139.427 35.0157 136.937 36.4704 135.188 38.7164C133.439 40.9624 132.561 43.8311 132.733 46.7394C132.905 49.6478 134.114 52.3775 136.114 54.3738C138.114 56.3702 140.755 57.4832 143.5 57.4868C146.007 57.4883 148.437 56.5637 150.373 54.8715C152.308 53.1793 153.628 50.825 154.107 48.2125C154.586 45.5999 154.194 42.8919 152.997 40.5529C151.801 38.2138 149.875 36.3896 147.55 35.393Z" fill="#CDD0E3"/>
<path d="M247.275 34.6744C245.114 34.6744 243.448 36.523 243.448 38.6681C243.448 40.8131 245.114 42.6617 247.275 42.6617C249.436 42.6617 251.102 40.8131 251.102 38.6681C251.102 36.523 249.436 34.6744 247.275 34.6744Z" stroke="#CDD0E3" stroke-width="2"/>
<path d="M237.045 32.989C234.259 32.989 232.086 35.3744 232.086 38.1801C232.086 40.9858 234.259 43.3712 237.045 43.3712C239.83 43.3712 242.003 40.9858 242.003 38.1801C242.003 35.3744 239.83 32.989 237.045 32.989Z" stroke="#CDD0E3" stroke-width="2"/>
<path d="M251.918 44.92L251.918 44.92C250.506 43.8806 248.551 43.2499 246.424 43.2499C244.297 43.2499 242.343 43.8806 240.931 44.92L240.931 44.92C239.524 45.9551 238.639 47.3923 238.639 48.9714V53.3782V54.3782H239.639H252.21C253.314 54.3782 254.21 53.4827 254.21 52.3782V48.9714C254.21 47.3923 253.324 45.9551 251.918 44.92Z" stroke="#CDD0E3" stroke-width="2"/>
<path d="M244.615 46.1861L244.615 46.1861C242.685 44.9855 240.007 44.2523 237.082 44.2523C234.156 44.2523 231.478 44.9855 229.549 46.1861L229.549 46.1861C227.64 47.3741 226.383 49.0541 226.383 50.9575V55.2823C226.383 56.3869 227.278 57.2823 228.383 57.2823H245.781C246.885 57.2823 247.781 56.3869 247.781 55.2823V50.9575C247.781 49.0541 246.524 47.3741 244.615 46.1861Z" fill="white" stroke="#CDD0E3" stroke-width="2"/>
<path fill-rule="evenodd" clip-rule="evenodd" d="M62.6704 41.4427L54.1535 32.3806C51.0904 29.1376 46.1404 29.1376 43.0773 32.3806L34.5604 41.4427C34.286 41.7325 34.2036 42.1701 34.3518 42.55C34.5 42.9299 34.8494 43.1767 35.236 43.1746H36.6794V53.0536C36.685 57.0574 39.7341 60.3017 43.497 60.3077H44.9609C45.4883 60.3017 45.9129 59.8451 45.9129 59.2838V50.9623H51.3179V59.2838C51.3179 59.8451 51.7425 60.3017 52.2699 60.3077H53.7338C57.4967 60.3017 60.5458 57.0574 60.5514 53.0536V43.1746H61.9948C62.3814 43.1767 62.7308 42.9299 62.879 42.55C63.0272 42.1701 62.9448 41.7325 62.6704 41.4427ZM44.4262 33.8205C45.5361 32.6379 47.0423 31.9734 48.613 31.9734C50.1837 31.9734 51.69 32.6379 52.7998 33.8205L59.6789 41.1399H37.5471L44.4262 33.8205ZM53.7462 58.2721C56.4519 58.2661 58.6439 55.9338 58.6496 53.0548V43.1758H38.6061V53.0548C38.6117 55.9338 40.8037 58.2661 43.5095 58.2721H44.0111V49.9397C44.0167 49.3785 44.4458 48.9267 44.9733 48.9268H52.2823C52.8098 48.9267 53.239 49.3785 53.2446 49.9397V58.2721H53.7462Z" fill="#371B34"/>
<path d="M62.6704 41.4427L54.1535 32.3806C51.0904 29.1376 46.1404 29.1376 43.0773 32.3806L34.5604 41.4427C34.286 41.7325 34.2036 42.1701 34.3518 42.55C34.5 42.9299 34.8494 43.1767 35.236 43.1746H36.6794V53.0536C36.685 57.0574 39.7341 60.3017 43.497 60.3077H44.9609C45.4883 60.3017 45.9129 59.8451 45.9129 59.2838V50.9623H51.3179V59.2838C51.3179 59.8451 51.7425 60.3017 52.2699 60.3077H53.7338C57.4967 60.3017 60.5458 57.0574 60.5514 53.0536V43.1746H61.9948C62.3814 43.1767 62.7308 42.9299 62.879 42.55C63.0272 42.1701 62.9448 41.7325 62.6704 41.4427Z" fill="#371B34"/>
</svg>
