<svg width="30" height="32" viewBox="0 0 30 32" fill="none" xmlns="http://www.w3.org/2000/svg">
<path d="M15 28.6667C12.2292 28.6667 9.87 27.6391 7.9225 25.584C5.97417 23.528 5 21.0445 5 18.1334C5 16.6667 5.25542 15.3054 5.76625 14.0494C6.27625 12.7943 7 11.6889 7.9375 10.7334L15 3.33337L22.0625 10.7334C23 11.6889 23.7242 12.7943 24.235 14.0494C24.745 15.3054 25 16.6667 25 18.1334C25 21.0445 24.0262 23.528 22.0787 25.584C20.1304 27.6391 17.7708 28.6667 15 28.6667ZM7.53125 17.3334H22.4687C22.3854 16.4223 22.1617 15.5778 21.7975 14.8C21.4325 14.0223 20.9375 13.3112 20.3125 12.6667L15 7.06671L9.6875 12.6667C9.0625 13.3112 8.5675 14.0223 8.2025 14.8C7.83833 15.5778 7.61458 16.4223 7.53125 17.3334Z" fill="white"/>
</svg>
