<svg width="44" height="56" viewBox="0 0 44 56" fill="none" xmlns="http://www.w3.org/2000/svg">
<g filter="url(#filter0_d_4_383)">
<path d="M19.3383 38.905C19.3383 38.905 17.1542 34.0943 17.1542 30.8227C17.1542 27.5512 19.7331 25.9878 19.3383 22.7405C19.064 20.484 17.1542 17.3524 17.1542 17.3524" stroke="white" stroke-width="2" stroke-linecap="round"/>
<path d="M23.0748 38.905C23.0748 38.905 20.8906 34.0943 20.8906 30.8227C20.8906 27.5512 23.4695 25.9878 23.0748 22.7405C22.8005 20.484 20.8906 17.3524 20.8906 17.3524" stroke="white" stroke-width="2" stroke-linecap="round"/>
<path d="M26.8115 38.905C26.8115 38.905 24.6273 34.0943 24.6273 30.8227C24.6273 27.5512 27.2062 25.9878 26.8115 22.7405C26.5372 20.484 24.6273 17.3524 24.6273 17.3524" stroke="white" stroke-width="2" stroke-linecap="round"/>
</g>
<defs>
<filter id="filter0_d_4_383" x="0.154053" y="0.352203" width="43.6984" height="55.553" filterUnits="userSpaceOnUse" color-interpolation-filters="sRGB">
<feFlood flood-opacity="0" result="BackgroundImageFix"/>
<feColorMatrix in="SourceAlpha" type="matrix" values="0 0 0 0 0 0 0 0 0 0 0 0 0 0 0 0 0 0 127 0" result="hardAlpha"/>
<feOffset/>
<feGaussianBlur stdDeviation="8"/>
<feComposite in2="hardAlpha" operator="out"/>
<feColorMatrix type="matrix" values="0 0 0 0 0 0 0 0 0 0 0 0 0 0 0 0 0 0 0.12 0"/>
<feBlend mode="normal" in2="BackgroundImageFix" result="effect1_dropShadow_4_383"/>
<feBlend mode="normal" in="SourceGraphic" in2="effect1_dropShadow_4_383" result="shape"/>
</filter>
</defs>
</svg>
