<svg width="87" height="13" viewBox="0 0 87 13" fill="none" xmlns="http://www.w3.org/2000/svg">
<path opacity="0.35" d="M60.4548 0.527543H80.3233C82.2411 0.527543 83.7958 2.08221 83.7958 4V9C83.7958 10.9178 82.2411 12.4725 80.3233 12.4725H60.4548C58.537 12.4725 56.9824 10.9178 56.9824 9V4C56.9824 2.08221 58.537 0.527543 60.4548 0.527543Z" stroke="black" stroke-width="1.05509"/>
<path opacity="0.4" d="M85.438 5V9.22034C86.3845 8.86291 87 8.0314 87 7.11017C87 6.18894 86.3845 5.35744 85.438 5" fill="black"/>
<path d="M58.6843 4C58.6843 2.89543 59.5798 2 60.6843 2H80.0939C81.1984 2 82.0939 2.89543 82.0939 4V9C82.0939 10.1046 81.1984 11 80.0939 11H60.6843C59.5798 11 58.6843 10.1046 58.6843 9V4Z" fill="black"/>
<path fill-rule="evenodd" clip-rule="evenodd" d="M39.1767 3.58753C41.9263 3.58764 44.5707 4.55505 46.5635 6.28982C46.7135 6.42375 46.9534 6.42206 47.1012 6.28603L48.5356 4.96045C48.6104 4.89146 48.6521 4.798 48.6515 4.70076C48.6509 4.60353 48.608 4.51052 48.5323 4.44234C43.302 -0.147446 35.0507 -0.147446 29.8204 4.44234C29.7446 4.51047 29.7016 4.60345 29.7009 4.70069C29.7002 4.79792 29.7419 4.89141 29.8167 4.96045L31.2515 6.28603C31.3992 6.42226 31.6392 6.42396 31.7892 6.28982C33.7822 4.55494 36.4269 3.58752 39.1767 3.58753ZM39.2163 7.67235C40.727 7.67227 42.1838 8.18644 43.3036 9.11497C43.455 9.24674 43.6936 9.24389 43.8413 9.10853L45.274 7.78295C45.3495 7.71342 45.3914 7.61909 45.3903 7.52108C45.3892 7.42306 45.3452 7.32954 45.2682 7.26142C41.8582 4.35683 36.5772 4.35683 33.1672 7.26142C33.0901 7.32953 33.0462 7.42311 33.0452 7.52115C33.0442 7.6192 33.0862 7.71352 33.1618 7.78295L34.5941 9.10853C34.7418 9.24389 34.9804 9.24674 35.1318 9.11497C36.2509 8.18706 37.7065 7.67293 39.2163 7.67235ZM42.1298 10.3427C42.132 10.441 42.0898 10.5357 42.0132 10.6046L39.5348 12.8948C39.4621 12.9621 39.3631 13 39.2597 13C39.1564 13 39.0573 12.9621 38.9847 12.8948L36.5059 10.6046C36.4293 10.5357 36.3872 10.4409 36.3895 10.3426C36.3917 10.2443 36.4382 10.1512 36.5179 10.0853C38.1007 8.8595 40.4188 8.8595 42.0016 10.0853C42.0812 10.1513 42.1276 10.2444 42.1298 10.3427Z" fill="black"/>
<path d="M11.8652 4C11.8652 3.44772 12.3643 3 12.9799 3H14.0947C14.7103 3 15.2094 3.44772 15.2094 4V12C15.2094 12.5523 14.7103 13 14.0947 13H12.9799C12.3643 13 11.8652 12.5523 11.8652 12V4Z" fill="black"/>
<path d="M17.4389 2C17.4389 1.44772 17.938 1 18.5536 1H19.6684C20.284 1 20.7831 1.44772 20.7831 2V12C20.7831 12.5523 20.284 13 19.6684 13H18.5536C17.938 13 17.4389 12.5523 17.4389 12V2Z" fill="black"/>
<path d="M6.29148 7.5C6.29148 6.94772 6.79056 6.5 7.40622 6.5H8.52096C9.13661 6.5 9.6357 6.94772 9.6357 7.5V12C9.6357 12.5523 9.13661 13 8.52096 13H7.40622C6.79056 13 6.29148 12.5523 6.29148 12V7.5Z" fill="black"/>
<path d="M0.717773 10C0.717773 9.44772 1.21686 9 1.83251 9H2.94725C3.56291 9 4.06199 9.44772 4.06199 10V12C4.06199 12.5523 3.56291 13 2.94725 13H1.83251C1.21686 13 0.717773 12.5523 0.717773 12V10Z" fill="black"/>
</svg>
