<svg width="87" height="13" viewBox="0 0 87 13" fill="none" xmlns="http://www.w3.org/2000/svg">
<path opacity="0.35" d="M60.5363 0.527543H80.3305C82.2482 0.527543 83.8029 2.08222 83.8029 4V9C83.8029 10.9178 82.2482 12.4725 80.3305 12.4725H60.5363C58.6185 12.4725 57.0638 10.9178 57.0638 9V4C57.0638 2.08221 58.6185 0.527543 60.5363 0.527543Z" stroke="black" stroke-width="1.05509"/>
<path opacity="0.4" d="M85.4422 5V9.22034C86.3862 8.86291 87 8.0314 87 7.11017C87 6.18894 86.3862 5.35744 85.4422 5" fill="black"/>
<path d="M58.7598 4C58.7598 2.89543 59.6552 2 60.7598 2H80.1069C81.2115 2 82.1069 2.89543 82.1069 4V9C82.1069 10.1046 81.2115 11 80.1069 11H60.7598C59.6552 11 58.7598 10.1046 58.7598 9V4Z" fill="black"/>
<path fill-rule="evenodd" clip-rule="evenodd" d="M39.3044 3.58753C42.0466 3.58764 44.684 4.55505 46.6714 6.28982C46.821 6.42375 47.0603 6.42206 47.2077 6.28603L48.6382 4.96045C48.7129 4.89146 48.7545 4.798 48.7539 4.70076C48.7532 4.60353 48.7104 4.51052 48.6349 4.44234C43.4186 -0.147446 35.1893 -0.147446 29.973 4.44234C29.8974 4.51047 29.8545 4.60345 29.8538 4.70069C29.8531 4.79792 29.8947 4.89141 29.9692 4.96045L31.4002 6.28603C31.5475 6.42226 31.7869 6.42396 31.9365 6.28982C33.9242 4.55494 36.5619 3.58752 39.3044 3.58753ZM39.3438 7.67235C40.8505 7.67227 42.3034 8.18644 43.4202 9.11497C43.5713 9.24674 43.8092 9.24389 43.9565 9.10853L45.3854 7.78295C45.4607 7.71342 45.5024 7.61909 45.5013 7.52108C45.5002 7.42306 45.4564 7.32954 45.3796 7.26142C41.9786 4.35683 36.7118 4.35683 33.3108 7.26142C33.234 7.32953 33.1902 7.42311 33.1891 7.52115C33.1881 7.6192 33.23 7.71352 33.3054 7.78295L34.734 9.10853C34.8812 9.24389 35.1192 9.24674 35.2702 9.11497C36.3863 8.18706 37.8381 7.67293 39.3438 7.67235ZM42.2495 10.3427C42.2517 10.441 42.2096 10.5357 42.1332 10.6046L39.6614 12.8948C39.589 12.9621 39.4902 13 39.3871 13C39.2841 13 39.1853 12.9621 39.1128 12.8948L36.6406 10.6046C36.5643 10.5357 36.5223 10.4409 36.5245 10.3426C36.5268 10.2443 36.5731 10.1512 36.6526 10.0853C38.2312 8.8595 40.5431 8.8595 42.1217 10.0853C42.2011 10.1513 42.2473 10.2444 42.2495 10.3427Z" fill="black"/>
<path d="M12.0655 4C12.0655 3.44772 12.5633 3 13.1773 3H14.2891C14.9031 3 15.4008 3.44772 15.4008 4V12C15.4008 12.5523 14.9031 13 14.2891 13H13.1773C12.5633 13 12.0655 12.5523 12.0655 12V4Z" fill="black"/>
<path d="M17.6244 2C17.6244 1.44772 18.1221 1 18.7361 1H19.8479C20.4619 1 20.9597 1.44772 20.9597 2V12C20.9597 12.5523 20.4619 13 19.8479 13H18.7361C18.1221 13 17.6244 12.5523 17.6244 12V2Z" fill="black"/>
<path d="M6.50668 7.5C6.50668 6.94772 7.00444 6.5 7.61845 6.5H8.73022C9.34423 6.5 9.84199 6.94772 9.84199 7.5V12C9.84199 12.5523 9.34423 13 8.73022 13H7.61845C7.00444 13 6.50668 12.5523 6.50668 12V7.5Z" fill="black"/>
<path d="M0.947845 10C0.947845 9.44772 1.4456 9 2.05961 9H3.17138C3.78539 9 4.28315 9.44772 4.28315 10V12C4.28315 12.5523 3.78539 13 3.17138 13H2.05961C1.4456 13 0.947845 12.5523 0.947845 12V10Z" fill="black"/>
</svg>
