<svg width="386" height="83" viewBox="0 0 386 83" fill="none" xmlns="http://www.w3.org/2000/svg">
<g filter="url(#filter0_d_7_876)">
<path d="M5 74L38.5344 68.3572C41.3564 67.8823 43.9159 66.4146 45.751 64.2187L53.7471 54.6507C58.1571 49.3738 66.0908 48.8751 71.1268 53.5582L82.6914 64.3124C88.1365 69.376 96.8289 68.3193 100.902 62.0987L112.226 44.8061C116.379 38.4639 125.299 37.5141 130.695 42.8396L151.068 62.9485C156.704 68.5114 166.088 67.1862 169.963 60.2801L184.276 34.7702C188.303 27.5943 198.193 26.5074 203.681 32.6375L226.675 58.3173C231.221 63.3946 239.078 63.6712 243.97 58.9261L273.295 30.4815C278.139 25.7826 285.904 26.0012 290.476 30.9653L310.617 52.8318C315.211 57.8195 323.022 58.0127 327.857 53.2582L381 1" stroke="url(#paint0_linear_7_876)" stroke-width="2"/>
</g>
<defs>
<filter id="filter0_d_7_876" x="0.834045" y="0.286987" width="384.867" height="82.6991" filterUnits="userSpaceOnUse" color-interpolation-filters="sRGB">
<feFlood flood-opacity="0" result="BackgroundImageFix"/>
<feColorMatrix in="SourceAlpha" type="matrix" values="0 0 0 0 0 0 0 0 0 0 0 0 0 0 0 0 0 0 127 0" result="hardAlpha"/>
<feOffset dy="4"/>
<feGaussianBlur stdDeviation="2"/>
<feComposite in2="hardAlpha" operator="out"/>
<feColorMatrix type="matrix" values="0 0 0 0 0 0 0 0 0 0 0 0 0 0 0 0 0 0 0.25 0"/>
<feBlend mode="normal" in2="BackgroundImageFix" result="effect1_dropShadow_7_876"/>
<feBlend mode="normal" in="SourceGraphic" in2="effect1_dropShadow_7_876" result="shape"/>
</filter>
<linearGradient id="paint0_linear_7_876" x1="193" y1="1" x2="193" y2="74" gradientUnits="userSpaceOnUse">
<stop stop-color="#AFE9FF"/>
<stop offset="1" stop-color="#41CAFF"/>
</linearGradient>
</defs>
</svg>
