<svg width="22" height="25" viewBox="0 0 22 25" fill="none" xmlns="http://www.w3.org/2000/svg">
<path d="M12.6714 0.307587C6.11028 0.307587 0.797607 5.7028 0.797607 12.3567C0.797607 19.0106 6.11028 24.4059 12.6714 24.4059C15.8909 24.4059 18.8076 23.1041 20.9486 20.9955C21.2142 20.7319 21.2833 20.3231 21.1133 19.9896C20.9433 19.6561 20.5767 19.4679 20.2101 19.5324C19.6895 19.6239 19.1582 19.6723 18.611 19.6723C13.463 19.6723 9.28725 15.4336 9.28725 10.2051C9.28725 6.66566 11.1998 3.58345 14.0315 1.95896C14.3555 1.7707 14.5202 1.39416 14.4405 1.02838C14.3609 0.662606 14.0527 0.388273 13.6808 0.355998C13.3461 0.329103 13.0114 0.312966 12.6714 0.312966V0.307587Z" fill="white"/>
</svg>
