<svg width="17" height="18" viewBox="0 0 17 18" fill="none" xmlns="http://www.w3.org/2000/svg">
<path d="M8.04535 4.59161C8.04535 4.16768 8.38641 3.82661 8.81034 3.82661C9.23428 3.82661 9.57534 4.16768 9.57534 4.59161V8.51859L12.2943 10.3291C12.6449 10.565 12.7405 11.0399 12.4791 11.3905C12.2719 11.7411 11.797 11.8368 11.4464 11.5754L8.38641 9.53539C8.17285 9.42065 8.04535 9.18158 8.04535 8.8979V4.59161ZM8.81034 0.766632C13.3174 0.766632 16.9703 4.41949 16.9703 8.92659C16.9703 13.4337 13.3174 17.0865 8.81034 17.0865C4.30324 17.0865 0.650391 13.4337 0.650391 8.92659C0.650391 4.41949 4.30324 0.766632 8.81034 0.766632ZM2.18038 8.92659C2.18038 12.589 5.14793 15.5565 8.81034 15.5565C12.4728 15.5565 15.4403 12.589 15.4403 8.92659C15.4403 5.26417 12.4728 2.29662 8.81034 2.29662C5.14793 2.29662 2.18038 5.26417 2.18038 8.92659Z" fill="white"/>
</svg>
