<svg width="34" height="40" viewBox="0 0 34 40" fill="none" xmlns="http://www.w3.org/2000/svg">
<g filter="url(#filter0_d_4_378)">
<path d="M13.245 29.2473C13.245 29.5375 13.3303 29.8207 13.4933 30.0627L14.2988 31.2468C14.5455 31.6098 15.1057 31.905 15.5508 31.905H18.449C18.8926 31.905 19.4529 31.6099 19.6996 31.2468L20.5023 30.0631C20.6403 29.8586 20.7536 29.493 20.7536 29.2473L20.7596 27.4405H13.2403L13.245 29.2473ZM16.9999 8.30759C12.2073 8.32235 8.72864 12.1319 8.72864 16.3783C8.72864 18.4239 9.50125 20.2888 10.7758 21.7158C11.5526 22.5842 12.7656 24.3998 13.2299 25.931C13.2314 25.9425 13.2343 25.9548 13.2358 25.967H20.7646C20.766 25.9548 20.769 25.9432 20.7704 25.931C21.2345 24.3998 22.4477 22.5842 23.2246 21.7158C24.5005 20.3284 25.2712 18.4663 25.2712 16.3783C25.2712 11.9397 21.568 8.30777 16.9999 8.30759ZM21.5304 20.2962C20.7944 21.1189 19.8836 22.4303 19.2252 23.7941H14.7789C14.1205 22.4303 13.2097 21.1189 12.4742 20.2966C11.5127 19.2222 10.9844 17.8072 10.9844 16.3783C10.9844 13.5298 13.245 10.5315 16.9576 10.52C20.3179 10.52 23.0154 13.1657 23.0154 16.3783C23.0154 17.8072 22.4891 19.2222 21.5304 20.2962ZM16.248 11.995C14.1755 11.995 12.4883 13.6497 12.4883 15.6823C12.4883 16.09 12.8246 16.4198 13.2403 16.4198C13.6559 16.4198 13.9922 16.088 13.9922 15.6823C13.9922 14.4623 15.004 13.4699 16.248 13.4699C16.6636 13.4699 16.9999 13.1405 16.9999 12.7329C16.9999 12.3254 16.6616 11.995 16.248 11.995Z" fill="#EEE7AC"/>
</g>
<defs>
<filter id="filter0_d_4_378" x="0.728638" y="0.307587" width="32.5426" height="39.5974" filterUnits="userSpaceOnUse" color-interpolation-filters="sRGB">
<feFlood flood-opacity="0" result="BackgroundImageFix"/>
<feColorMatrix in="SourceAlpha" type="matrix" values="0 0 0 0 0 0 0 0 0 0 0 0 0 0 0 0 0 0 127 0" result="hardAlpha"/>
<feOffset/>
<feGaussianBlur stdDeviation="4"/>
<feComposite in2="hardAlpha" operator="out"/>
<feColorMatrix type="matrix" values="0 0 0 0 0.725 0 0 0 0 0.706875 0 0 0 0 0.271875 0 0 0 0.44 0"/>
<feBlend mode="normal" in2="BackgroundImageFix" result="effect1_dropShadow_4_378"/>
<feBlend mode="normal" in="SourceGraphic" in2="effect1_dropShadow_4_378" result="shape"/>
</filter>
</defs>
</svg>
