<svg width="375" height="85" viewBox="0 0 375 85" fill="none" xmlns="http://www.w3.org/2000/svg">
<rect width="375" height="85" fill="white"/>
<path fill-rule="evenodd" clip-rule="evenodd" d="M343.544 39.312H345.752C346.424 39.312 347 39.888 347 40.56V43.44C347 44.112 346.424 44.688 345.752 44.688H343.544C343.256 44.688 342.872 44.976 342.776 45.264C342.68 45.648 342.68 45.936 342.968 46.224L344.6 47.856C344.888 48.048 344.984 48.432 344.984 48.72C344.984 49.008 344.792 49.392 344.6 49.584L342.584 51.6C342.104 52.08 341.336 52.08 340.856 51.6L339.224 49.968C338.936 49.68 338.552 49.68 338.264 49.776C337.88 49.872 337.688 50.16 337.688 50.544V52.752C337.688 53.424 337.112 54 336.44 54H333.56C332.888 54 332.312 53.424 332.312 52.752V50.544C332.312 50.256 332.024 49.872 331.736 49.776C331.352 49.68 331.064 49.68 330.776 49.968L329.144 51.6C328.664 52.08 327.896 52.08 327.416 51.6L325.4 49.584C325.112 49.392 325.016 49.008 325.016 48.72C325.016 48.432 325.208 48.048 325.4 47.856L327.032 46.224C327.32 45.936 327.32 45.552 327.224 45.264C327.128 44.88 326.84 44.688 326.456 44.688H324.248C323.576 44.688 323 44.112 323 43.44V40.56C323 39.888 323.576 39.312 324.248 39.312H326.456C326.744 39.312 327.128 39.024 327.224 38.736C327.32 38.352 327.32 38.064 327.032 37.776L325.4 36.144C325.112 35.952 325.016 35.568 325.016 35.28C325.016 34.992 325.208 34.608 325.4 34.416L327.416 32.4C327.896 31.92 328.664 31.92 329.144 32.4L330.776 34.032C331.064 34.32 331.448 34.32 331.736 34.224C332.12 34.128 332.312 33.84 332.312 33.456V31.248C332.312 30.576 332.888 30 333.56 30H336.44C337.112 30 337.688 30.576 337.688 31.248V33.456C337.688 33.744 337.976 34.128 338.264 34.224C338.648 34.32 338.936 34.32 339.224 34.032L340.856 32.4C341.336 31.92 342.104 31.92 342.584 32.4L344.6 34.416C344.888 34.608 344.984 34.992 344.984 35.28C344.984 35.568 344.792 35.952 344.6 36.144L342.968 37.776C342.68 38.064 342.68 38.448 342.776 38.736C342.872 39.12 343.16 39.312 343.544 39.312ZM345.752 43.824C345.944 43.824 346.136 43.632 346.136 43.44V40.56C346.136 40.368 345.944 40.176 345.752 40.176H343.544C342.776 40.176 342.2 39.792 341.912 39.12C341.624 38.448 341.816 37.68 342.296 37.2L343.928 35.568C344.024 35.472 344.024 35.184 343.928 35.088L341.912 33.072C341.816 32.976 341.528 32.976 341.432 33.072L339.8 34.704C339.32 35.184 338.552 35.376 337.88 35.088C337.208 34.8 336.824 34.224 336.824 33.456V31.248C336.824 31.056 336.632 30.864 336.44 30.864H333.56C333.368 30.864 333.176 31.056 333.176 31.248V33.456C333.176 34.224 332.792 34.8 332.12 35.088C331.448 35.376 330.68 35.184 330.2 34.704L328.568 33.072C328.472 32.976 328.184 32.976 328.088 33.072L326.072 35.088C325.976 35.184 325.976 35.472 326.072 35.568L327.704 37.2C328.184 37.68 328.376 38.448 328.088 39.12C327.8 39.792 327.224 40.176 326.456 40.176H324.248C324.056 40.176 323.864 40.368 323.864 40.56V43.44C323.864 43.632 324.056 43.824 324.248 43.824H326.456C327.224 43.824 327.8 44.208 328.088 44.88C328.376 45.552 328.184 46.32 327.704 46.8L326.072 48.432C325.976 48.528 325.976 48.816 326.072 48.912L328.088 50.928C328.184 51.024 328.472 51.024 328.568 50.928L330.2 49.296C330.584 49.008 330.968 48.816 331.448 48.816C331.64 48.816 331.928 48.816 332.12 48.912C332.792 49.2 333.176 49.776 333.176 50.544V52.752C333.176 52.944 333.368 53.136 333.56 53.136H336.44C336.632 53.136 336.824 52.944 336.824 52.752V50.544C336.824 49.776 337.208 49.2 337.88 48.912C338.552 48.624 339.32 48.816 339.8 49.296L341.432 50.928C341.528 51.024 341.816 51.024 341.912 50.928L343.928 48.912C344.024 48.816 344.024 48.528 343.928 48.432L342.296 46.8C341.816 46.32 341.624 45.552 341.912 44.88C342.2 44.208 342.776 43.824 343.544 43.824H345.752Z" fill="#CDD0E3"/>
<path d="M342.776 45.264L342.302 45.1059L342.296 45.1241L342.291 45.1427L342.776 45.264ZM344.6 47.856L344.246 48.2096L344.281 48.2446L344.323 48.272L344.6 47.856ZM338.264 49.776L338.385 50.2611L338.404 50.2564L338.422 50.2503L338.264 49.776ZM331.736 49.776L331.894 49.3017L331.876 49.2956L331.857 49.2909L331.736 49.776ZM329.144 51.6L329.498 51.9536L329.144 51.6ZM327.416 51.6L327.062 51.9536L327.416 51.6ZM325.4 49.584L325.754 49.2304L325.719 49.1954L325.677 49.168L325.4 49.584ZM325.4 47.856L325.754 48.2096H325.754L325.4 47.856ZM327.224 45.264L326.739 45.3853L326.744 45.4039L326.75 45.4221L327.224 45.264ZM327.224 38.736L327.698 38.8941L327.704 38.8759L327.709 38.8573L327.224 38.736ZM325.4 36.144L325.754 35.7904L325.719 35.7554L325.677 35.728L325.4 36.144ZM331.736 34.224L331.615 33.7389L331.596 33.7436L331.578 33.7497L331.736 34.224ZM338.264 34.224L338.106 34.6983L338.124 34.7044L338.143 34.7091L338.264 34.224ZM340.856 32.4L341.21 32.7536L340.856 32.4ZM342.584 32.4L342.23 32.7536V32.7536L342.584 32.4ZM344.6 34.416L344.246 34.7696L344.281 34.8046L344.323 34.832L344.6 34.416ZM344.6 36.144L344.954 36.4976V36.4976L344.6 36.144ZM342.776 38.736L343.261 38.6147L343.256 38.5961L343.25 38.5779L342.776 38.736ZM342.296 37.2L341.942 36.8464L342.296 37.2ZM343.928 35.568L344.282 35.9216L344.282 35.9216L343.928 35.568ZM343.928 35.088L344.282 34.7344L344.282 34.7344L343.928 35.088ZM341.912 33.072L342.266 32.7184L342.266 32.7184L341.912 33.072ZM341.432 33.072L341.786 33.4256L341.786 33.4256L341.432 33.072ZM339.8 34.704L339.446 34.3504V34.3504L339.8 34.704ZM337.88 35.088L338.077 34.6284V34.6284L337.88 35.088ZM332.12 35.088L331.923 34.6284V34.6284L332.12 35.088ZM328.568 33.072L328.214 33.4256L328.214 33.4256L328.568 33.072ZM328.088 33.072L327.734 32.7184L327.734 32.7184L328.088 33.072ZM326.072 35.088L325.718 34.7344L325.718 34.7344L326.072 35.088ZM326.072 35.568L326.426 35.2144L326.426 35.2144L326.072 35.568ZM328.088 39.12L327.628 38.923H327.628L328.088 39.12ZM328.088 44.88L327.628 45.077H327.628L328.088 44.88ZM327.704 46.8L327.35 46.4464H327.35L327.704 46.8ZM326.072 48.432L326.426 48.7856L326.426 48.7856L326.072 48.432ZM326.072 48.912L325.718 49.2656L325.718 49.2656L326.072 48.912ZM328.088 50.928L327.734 51.2816L327.734 51.2816L328.088 50.928ZM328.568 50.928L328.922 51.2816L328.922 51.2816L328.568 50.928ZM330.2 49.296L329.9 48.896L329.872 48.9173L329.846 48.9424L330.2 49.296ZM332.12 48.912L331.896 49.3592L331.91 49.3658L331.923 49.3716L332.12 48.912ZM339.8 49.296L339.446 49.6496L339.8 49.296ZM341.432 50.928L341.786 50.5744L341.432 50.928ZM341.912 50.928L342.266 51.2816L342.266 51.2816L341.912 50.928ZM343.928 48.912L344.282 49.2656L344.282 49.2656L343.928 48.912ZM343.928 48.432L343.574 48.7856L343.928 48.432ZM342.296 46.8L342.65 46.4464L342.296 46.8ZM345.752 38.812H343.544V39.812H345.752V38.812ZM347.5 40.56C347.5 39.6119 346.7 38.812 345.752 38.812V39.812C346.148 39.812 346.5 40.1641 346.5 40.56H347.5ZM347.5 43.44V40.56H346.5V43.44H347.5ZM345.752 45.188C346.7 45.188 347.5 44.3881 347.5 43.44H346.5C346.5 43.8359 346.148 44.188 345.752 44.188V45.188ZM343.544 45.188H345.752V44.188H343.544V45.188ZM343.25 45.4221C343.251 45.4187 343.26 45.398 343.286 45.3648C343.312 45.3329 343.347 45.2988 343.388 45.268C343.429 45.2371 343.47 45.2147 343.503 45.2011C343.539 45.1868 343.552 45.188 343.544 45.188V44.188C343.252 44.188 342.98 44.3237 342.788 44.468C342.593 44.6143 342.392 44.8348 342.302 45.1059L343.25 45.4221ZM343.322 45.8704C343.243 45.792 343.228 45.7422 343.222 45.704C343.213 45.6474 343.218 45.5571 343.261 45.3853L342.291 45.1427C342.238 45.3549 342.195 45.6006 342.234 45.856C342.276 46.1298 342.405 46.368 342.614 46.5776L343.322 45.8704ZM344.954 47.5024L343.322 45.8704L342.614 46.5776L344.246 48.2096L344.954 47.5024ZM345.484 48.72C345.484 48.3694 345.373 47.7706 344.877 47.44L344.323 48.272C344.358 48.2954 344.399 48.3426 344.433 48.4315C344.468 48.5209 344.484 48.6265 344.484 48.72H345.484ZM344.954 49.9376C345.101 49.7904 345.228 49.5935 345.318 49.3975C345.407 49.2044 345.484 48.9623 345.484 48.72H344.484C344.484 48.7657 344.465 48.8596 344.41 48.9785C344.356 49.0945 344.291 49.1856 344.246 49.2304L344.954 49.9376ZM342.938 51.9536L344.954 49.9376L344.246 49.2304L342.23 51.2464L342.938 51.9536ZM340.502 51.9536C341.178 52.6288 342.262 52.6288 342.938 51.9536L342.23 51.2464C341.946 51.5312 341.494 51.5312 341.21 51.2464L340.502 51.9536ZM338.87 50.3216L340.502 51.9536L341.21 51.2464L339.578 49.6144L338.87 50.3216ZM338.422 50.2503C338.602 50.1904 338.763 50.2136 338.87 50.3216L339.578 49.6144C339.109 49.1464 338.502 49.1696 338.106 49.3017L338.422 50.2503ZM338.188 50.544C338.188 50.4347 338.215 50.3757 338.236 50.3461C338.255 50.3202 338.293 50.2842 338.385 50.2611L338.143 49.2909C337.851 49.3638 337.601 49.5198 337.428 49.7579C337.257 49.9923 337.188 50.2693 337.188 50.544H338.188ZM338.188 52.752V50.544H337.188V52.752H338.188ZM336.44 54.5C337.388 54.5 338.188 53.7001 338.188 52.752H337.188C337.188 53.1479 336.836 53.5 336.44 53.5V54.5ZM333.56 54.5H336.44V53.5H333.56V54.5ZM331.812 52.752C331.812 53.7001 332.612 54.5 333.56 54.5V53.5C333.164 53.5 332.812 53.1479 332.812 52.752H331.812ZM331.812 50.544V52.752H332.812V50.544H331.812ZM331.578 50.2503C331.581 50.2515 331.602 50.2599 331.635 50.2864C331.667 50.312 331.701 50.3469 331.732 50.388C331.763 50.4292 331.785 50.4697 331.799 50.5032C331.813 50.5386 331.812 50.5522 331.812 50.544H332.812C332.812 50.2523 332.676 49.9804 332.532 49.788C332.386 49.5929 332.165 49.392 331.894 49.3017L331.578 50.2503ZM331.13 50.3216C331.208 50.2432 331.258 50.2281 331.296 50.2222C331.353 50.2135 331.443 50.2181 331.615 50.2611L331.857 49.2909C331.645 49.2379 331.399 49.1945 331.144 49.2338C330.87 49.2759 330.632 49.4048 330.422 49.6144L331.13 50.3216ZM329.498 51.9536L331.13 50.3216L330.422 49.6144L328.79 51.2464L329.498 51.9536ZM327.062 51.9536C327.738 52.6288 328.822 52.6288 329.498 51.9536L328.79 51.2464C328.506 51.5312 328.054 51.5312 327.77 51.2464L327.062 51.9536ZM325.046 49.9376L327.062 51.9536L327.77 51.2464L325.754 49.2304L325.046 49.9376ZM324.516 48.72C324.516 49.0706 324.627 49.6694 325.123 50L325.677 49.168C325.642 49.1446 325.601 49.0974 325.567 49.0085C325.532 48.9191 325.516 48.8135 325.516 48.72H324.516ZM325.046 47.5024C324.899 47.6496 324.772 47.8465 324.682 48.0425C324.593 48.2356 324.516 48.4777 324.516 48.72H325.516C325.516 48.6743 325.535 48.5804 325.59 48.4615C325.644 48.3455 325.709 48.2544 325.754 48.2096L325.046 47.5024ZM326.678 45.8704L325.046 47.5024L325.754 48.2096L327.386 46.5776L326.678 45.8704ZM326.75 45.4221C326.81 45.6021 326.786 45.7625 326.678 45.8704L327.386 46.5776C327.854 46.1095 327.83 45.5019 327.698 45.1059L326.75 45.4221ZM326.456 45.188C326.565 45.188 326.624 45.2148 326.654 45.2364C326.68 45.2552 326.716 45.2929 326.739 45.3853L327.709 45.1427C327.636 44.8511 327.48 44.6008 327.242 44.4276C327.008 44.2572 326.731 44.188 326.456 44.188V45.188ZM324.248 45.188H326.456V44.188H324.248V45.188ZM322.5 43.44C322.5 44.3881 323.3 45.188 324.248 45.188V44.188C323.852 44.188 323.5 43.8359 323.5 43.44H322.5ZM322.5 40.56V43.44H323.5V40.56H322.5ZM324.248 38.812C323.3 38.812 322.5 39.6119 322.5 40.56H323.5C323.5 40.1641 323.852 39.812 324.248 39.812V38.812ZM326.456 38.812H324.248V39.812H326.456V38.812ZM326.75 38.5779C326.749 38.5813 326.74 38.602 326.714 38.6352C326.688 38.6671 326.653 38.7012 326.612 38.732C326.571 38.7629 326.53 38.7853 326.497 38.7989C326.461 38.8132 326.448 38.812 326.456 38.812V39.812C326.748 39.812 327.02 39.6763 327.212 39.532C327.407 39.3857 327.608 39.1652 327.698 38.8941L326.75 38.5779ZM326.678 38.1296C326.757 38.208 326.772 38.2578 326.778 38.296C326.787 38.3526 326.782 38.4429 326.739 38.6147L327.709 38.8573C327.762 38.6451 327.805 38.3994 327.766 38.144C327.724 37.8702 327.595 37.632 327.386 37.4224L326.678 38.1296ZM325.046 36.4976L326.678 38.1296L327.386 37.4224L325.754 35.7904L325.046 36.4976ZM324.516 35.28C324.516 35.6306 324.627 36.2294 325.123 36.56L325.677 35.728C325.642 35.7046 325.601 35.6574 325.567 35.5685C325.532 35.4791 325.516 35.3735 325.516 35.28H324.516ZM325.046 34.0624C324.899 34.2096 324.772 34.4065 324.682 34.6025C324.593 34.7956 324.516 35.0377 324.516 35.28H325.516C325.516 35.2343 325.535 35.1404 325.59 35.0215C325.644 34.9055 325.709 34.8144 325.754 34.7696L325.046 34.0624ZM327.062 32.0464L325.046 34.0624L325.754 34.7696L327.77 32.7536L327.062 32.0464ZM329.498 32.0464C328.822 31.3712 327.738 31.3712 327.062 32.0464L327.77 32.7536C328.054 32.4688 328.506 32.4688 328.79 32.7536L329.498 32.0464ZM331.13 33.6784L329.498 32.0464L328.79 32.7536L330.422 34.3856L331.13 33.6784ZM331.578 33.7497C331.398 33.8096 331.237 33.7864 331.13 33.6784L330.422 34.3856C330.891 34.8536 331.498 34.8304 331.894 34.6983L331.578 33.7497ZM331.812 33.456C331.812 33.5653 331.785 33.6243 331.764 33.6539C331.745 33.6798 331.707 33.7158 331.615 33.7389L331.857 34.7091C332.149 34.6362 332.399 34.4802 332.572 34.2421C332.743 34.0077 332.812 33.7307 332.812 33.456H331.812ZM331.812 31.248V33.456H332.812V31.248H331.812ZM333.56 29.5C332.612 29.5 331.812 30.2999 331.812 31.248H332.812C332.812 30.8521 333.164 30.5 333.56 30.5V29.5ZM336.44 29.5H333.56V30.5H336.44V29.5ZM338.188 31.248C338.188 30.2999 337.388 29.5 336.44 29.5V30.5C336.836 30.5 337.188 30.8521 337.188 31.248H338.188ZM338.188 33.456V31.248H337.188V33.456H338.188ZM338.422 33.7497C338.419 33.7485 338.398 33.7401 338.365 33.7136C338.333 33.688 338.299 33.6531 338.268 33.612C338.237 33.5708 338.215 33.5303 338.201 33.4968C338.187 33.4614 338.188 33.4478 338.188 33.456H337.188C337.188 33.7477 337.324 34.0196 337.468 34.212C337.614 34.4071 337.835 34.608 338.106 34.6983L338.422 33.7497ZM338.87 33.6784C338.792 33.7568 338.742 33.7719 338.704 33.7778C338.647 33.7865 338.557 33.7819 338.385 33.7389L338.143 34.7091C338.355 34.7621 338.601 34.8055 338.856 34.7662C339.13 34.7241 339.368 34.5952 339.578 34.3856L338.87 33.6784ZM340.502 32.0464L338.87 33.6784L339.578 34.3856L341.21 32.7536L340.502 32.0464ZM342.938 32.0464C342.262 31.3712 341.178 31.3712 340.502 32.0464L341.21 32.7536C341.494 32.4688 341.946 32.4688 342.23 32.7536L342.938 32.0464ZM344.954 34.0624L342.938 32.0464L342.23 32.7536L344.246 34.7696L344.954 34.0624ZM345.484 35.28C345.484 34.9294 345.373 34.3306 344.877 34L344.323 34.832C344.358 34.8554 344.399 34.9026 344.433 34.9915C344.468 35.0809 344.484 35.1865 344.484 35.28H345.484ZM344.954 36.4976C345.101 36.3504 345.228 36.1535 345.318 35.9575C345.407 35.7644 345.484 35.5223 345.484 35.28H344.484C344.484 35.3257 344.465 35.4196 344.41 35.5385C344.356 35.6545 344.291 35.7456 344.246 35.7904L344.954 36.4976ZM343.322 38.1296L344.954 36.4976L344.246 35.7904L342.614 37.4224L343.322 38.1296ZM343.25 38.5779C343.19 38.3979 343.214 38.2375 343.322 38.1296L342.614 37.4224C342.146 37.8905 342.17 38.4981 342.302 38.8941L343.25 38.5779ZM343.544 38.812C343.435 38.812 343.376 38.7852 343.346 38.7636C343.32 38.7448 343.284 38.7071 343.261 38.6147L342.291 38.8573C342.364 39.1489 342.52 39.3992 342.758 39.5724C342.992 39.7428 343.269 39.812 343.544 39.812V38.812ZM345.636 43.44C345.636 43.4048 345.645 43.3809 345.65 43.3696C345.655 43.3583 345.66 43.3528 345.662 43.3504C345.665 43.3481 345.67 43.3432 345.682 43.3379C345.693 43.3326 345.717 43.324 345.752 43.324V44.324C346.011 44.324 346.227 44.1997 346.37 44.0576C346.512 43.9154 346.636 43.6986 346.636 43.44H345.636ZM345.636 40.56V43.44H346.636V40.56H345.636ZM345.752 40.676C345.717 40.676 345.693 40.6674 345.682 40.6621C345.67 40.6568 345.665 40.6519 345.662 40.6496C345.66 40.6472 345.655 40.6417 345.65 40.6304C345.645 40.6191 345.636 40.5952 345.636 40.56H346.636C346.636 40.3014 346.512 40.0846 346.37 39.9424C346.227 39.8003 346.011 39.676 345.752 39.676V40.676ZM343.544 40.676H345.752V39.676H343.544V40.676ZM341.452 39.317C341.821 40.1765 342.58 40.676 343.544 40.676V39.676C342.972 39.676 342.579 39.4075 342.372 38.923L341.452 39.317ZM341.942 36.8464C341.33 37.459 341.077 38.4419 341.452 39.317L342.372 38.923C342.171 38.4541 342.302 37.901 342.65 37.5536L341.942 36.8464ZM343.574 35.2144L341.942 36.8464L342.65 37.5536L344.282 35.9216L343.574 35.2144ZM343.574 35.4416C343.543 35.4102 343.525 35.381 343.516 35.3635C343.507 35.3456 343.503 35.3327 343.501 35.3274C343.499 35.318 343.5 35.3189 343.5 35.328C343.5 35.3371 343.499 35.338 343.501 35.3286C343.503 35.3233 343.507 35.3104 343.516 35.2925C343.525 35.275 343.543 35.2458 343.574 35.2144L344.282 35.9216C344.388 35.8151 344.438 35.69 344.463 35.6034C344.489 35.51 344.5 35.4149 344.5 35.328C344.5 35.2411 344.489 35.146 344.463 35.0526C344.438 34.966 344.388 34.8409 344.282 34.7344L343.574 35.4416ZM341.558 33.4256L343.574 35.4416L344.282 34.7344L342.266 32.7184L341.558 33.4256ZM341.786 33.4256C341.754 33.457 341.725 33.4747 341.708 33.4838C341.69 33.4931 341.677 33.4972 341.671 33.4988C341.662 33.5014 341.663 33.5 341.672 33.5C341.681 33.5 341.682 33.5014 341.673 33.4988C341.667 33.4972 341.654 33.4931 341.636 33.4838C341.619 33.4747 341.59 33.457 341.558 33.4256L342.266 32.7184C342.159 32.612 342.034 32.562 341.947 32.5372C341.854 32.5106 341.759 32.5 341.672 32.5C341.585 32.5 341.49 32.5106 341.397 32.5372C341.31 32.562 341.185 32.612 341.078 32.7184L341.786 33.4256ZM340.154 35.0576L341.786 33.4256L341.078 32.7184L339.446 34.3504L340.154 35.0576ZM337.683 35.5476C338.558 35.9226 339.541 35.6701 340.154 35.0576L339.446 34.3504C339.099 34.6979 338.546 34.8294 338.077 34.6284L337.683 35.5476ZM336.324 33.456C336.324 34.42 336.824 35.1792 337.683 35.5476L338.077 34.6284C337.592 34.4208 337.324 34.028 337.324 33.456H336.324ZM336.324 31.248V33.456H337.324V31.248H336.324ZM336.44 31.364C336.405 31.364 336.381 31.3554 336.37 31.3501C336.358 31.3448 336.353 31.3399 336.35 31.3376C336.348 31.3352 336.343 31.3297 336.338 31.3184C336.333 31.3071 336.324 31.2832 336.324 31.248H337.324C337.324 30.9894 337.2 30.7726 337.058 30.6304C336.915 30.4883 336.699 30.364 336.44 30.364V31.364ZM333.56 31.364H336.44V30.364H333.56V31.364ZM333.676 31.248C333.676 31.2832 333.667 31.3071 333.662 31.3184C333.657 31.3297 333.652 31.3352 333.65 31.3376C333.647 31.3399 333.642 31.3448 333.63 31.3501C333.619 31.3554 333.595 31.364 333.56 31.364V30.364C333.301 30.364 333.085 30.4883 332.942 30.6304C332.8 30.7726 332.676 30.9894 332.676 31.248H333.676ZM333.676 33.456V31.248H332.676V33.456H333.676ZM332.317 35.5476C333.176 35.1792 333.676 34.42 333.676 33.456H332.676C332.676 34.028 332.408 34.4208 331.923 34.6284L332.317 35.5476ZM329.846 35.0576C330.459 35.6701 331.442 35.9226 332.317 35.5476L331.923 34.6284C331.454 34.8294 330.901 34.6979 330.554 34.3504L329.846 35.0576ZM328.214 33.4256L329.846 35.0576L330.554 34.3504L328.922 32.7184L328.214 33.4256ZM328.442 33.4256C328.41 33.457 328.381 33.4747 328.364 33.4838C328.346 33.4931 328.333 33.4972 328.327 33.4988C328.318 33.5014 328.319 33.5 328.328 33.5C328.337 33.5 328.338 33.5014 328.329 33.4988C328.323 33.4972 328.31 33.4931 328.292 33.4838C328.275 33.4747 328.246 33.457 328.214 33.4256L328.922 32.7184C328.815 32.612 328.69 32.562 328.603 32.5372C328.51 32.5106 328.415 32.5 328.328 32.5C328.241 32.5 328.146 32.5106 328.053 32.5372C327.966 32.562 327.841 32.612 327.734 32.7184L328.442 33.4256ZM326.426 35.4416L328.442 33.4256L327.734 32.7184L325.718 34.7344L326.426 35.4416ZM326.426 35.2144C326.457 35.2458 326.475 35.275 326.484 35.2925C326.493 35.3104 326.497 35.3233 326.499 35.3286C326.501 35.338 326.5 35.3371 326.5 35.328C326.5 35.3189 326.501 35.318 326.499 35.3274C326.497 35.3327 326.493 35.3456 326.484 35.3635C326.475 35.381 326.457 35.4102 326.426 35.4416L325.718 34.7344C325.612 34.8409 325.562 34.966 325.537 35.0526C325.511 35.146 325.5 35.2411 325.5 35.328C325.5 35.4149 325.511 35.51 325.537 35.6034C325.562 35.69 325.612 35.8151 325.718 35.9216L326.426 35.2144ZM328.058 36.8464L326.426 35.2144L325.718 35.9216L327.35 37.5536L328.058 36.8464ZM328.548 39.317C328.923 38.4419 328.67 37.459 328.058 36.8464L327.35 37.5536C327.698 37.901 327.829 38.4541 327.628 38.923L328.548 39.317ZM326.456 40.676C327.42 40.676 328.179 40.1765 328.548 39.317L327.628 38.923C327.421 39.4075 327.028 39.676 326.456 39.676V40.676ZM324.248 40.676H326.456V39.676H324.248V40.676ZM324.364 40.56C324.364 40.5952 324.355 40.6191 324.35 40.6304C324.345 40.6417 324.34 40.6472 324.338 40.6496C324.335 40.6519 324.33 40.6568 324.318 40.6621C324.307 40.6674 324.283 40.676 324.248 40.676V39.676C323.989 39.676 323.773 39.8003 323.63 39.9424C323.488 40.0846 323.364 40.3014 323.364 40.56H324.364ZM324.364 43.44V40.56H323.364V43.44H324.364ZM324.248 43.324C324.283 43.324 324.307 43.3326 324.318 43.3379C324.33 43.3432 324.335 43.3481 324.338 43.3504C324.34 43.3528 324.345 43.3583 324.35 43.3696C324.355 43.3809 324.364 43.4048 324.364 43.44H323.364C323.364 43.6986 323.488 43.9154 323.63 44.0576C323.773 44.1997 323.989 44.324 324.248 44.324V43.324ZM326.456 43.324H324.248V44.324H326.456V43.324ZM328.548 44.683C328.179 43.8235 327.42 43.324 326.456 43.324V44.324C327.028 44.324 327.421 44.5925 327.628 45.077L328.548 44.683ZM328.058 47.1536C328.67 46.541 328.923 45.5581 328.548 44.683L327.628 45.077C327.829 45.5459 327.698 46.099 327.35 46.4464L328.058 47.1536ZM326.426 48.7856L328.058 47.1536L327.35 46.4464L325.718 48.0784L326.426 48.7856ZM326.426 48.5584C326.457 48.5898 326.475 48.619 326.484 48.6365C326.493 48.6544 326.497 48.6673 326.499 48.6726C326.501 48.682 326.5 48.6811 326.5 48.672C326.5 48.6629 326.501 48.662 326.499 48.6714C326.497 48.6767 326.493 48.6896 326.484 48.7075C326.475 48.725 326.457 48.7542 326.426 48.7856L325.718 48.0784C325.612 48.1849 325.562 48.31 325.537 48.3966C325.511 48.49 325.5 48.5851 325.5 48.672C325.5 48.7589 325.511 48.854 325.537 48.9474C325.562 49.034 325.612 49.1591 325.718 49.2656L326.426 48.5584ZM328.442 50.5744L326.426 48.5584L325.718 49.2656L327.734 51.2816L328.442 50.5744ZM328.214 50.5744C328.246 50.543 328.275 50.5253 328.292 50.5162C328.31 50.5069 328.323 50.5028 328.329 50.5012C328.338 50.4985 328.337 50.5 328.328 50.5C328.319 50.5 328.318 50.4985 328.327 50.5012C328.333 50.5028 328.346 50.5069 328.364 50.5162C328.381 50.5253 328.41 50.543 328.442 50.5744L327.734 51.2816C327.841 51.388 327.966 51.438 328.053 51.4628C328.146 51.4894 328.241 51.5 328.328 51.5C328.415 51.5 328.51 51.4894 328.603 51.4628C328.69 51.438 328.815 51.388 328.922 51.2816L328.214 50.5744ZM329.846 48.9424L328.214 50.5744L328.922 51.2816L330.554 49.6496L329.846 48.9424ZM331.448 48.316C330.816 48.316 330.328 48.5751 329.9 48.896L330.5 49.696C330.84 49.4409 331.12 49.316 331.448 49.316V48.316ZM332.344 48.4648C332.167 48.3767 331.977 48.3448 331.834 48.3305C331.685 48.3156 331.541 48.316 331.448 48.316V49.316C331.547 49.316 331.643 49.3164 331.734 49.3255C331.831 49.3352 331.881 49.3513 331.896 49.3592L332.344 48.4648ZM333.676 50.544C333.676 49.58 333.176 48.8208 332.317 48.4524L331.923 49.3716C332.408 49.5792 332.676 49.972 332.676 50.544H333.676ZM333.676 52.752V50.544H332.676V52.752H333.676ZM333.56 52.636C333.595 52.636 333.619 52.6446 333.63 52.6499C333.642 52.6552 333.647 52.6601 333.65 52.6624C333.652 52.6648 333.657 52.6703 333.662 52.6816C333.667 52.6929 333.676 52.7168 333.676 52.752H332.676C332.676 53.0106 332.8 53.2274 332.942 53.3696C333.085 53.5117 333.301 53.636 333.56 53.636V52.636ZM336.44 52.636H333.56V53.636H336.44V52.636ZM336.324 52.752C336.324 52.7168 336.333 52.6929 336.338 52.6816C336.343 52.6703 336.348 52.6648 336.35 52.6624C336.353 52.6601 336.358 52.6552 336.37 52.6499C336.381 52.6446 336.405 52.636 336.44 52.636V53.636C336.699 53.636 336.915 53.5117 337.058 53.3696C337.2 53.2274 337.324 53.0106 337.324 52.752H336.324ZM336.324 50.544V52.752H337.324V50.544H336.324ZM337.683 48.4524C336.824 48.8208 336.324 49.58 336.324 50.544H337.324C337.324 49.972 337.592 49.5792 338.077 49.3716L337.683 48.4524ZM340.154 48.9424C339.541 48.3299 338.558 48.0774 337.683 48.4524L338.077 49.3716C338.546 49.1706 339.099 49.3021 339.446 49.6496L340.154 48.9424ZM341.786 50.5744L340.154 48.9424L339.446 49.6496L341.078 51.2816L341.786 50.5744ZM341.558 50.5744C341.59 50.543 341.619 50.5253 341.636 50.5162C341.654 50.5069 341.667 50.5028 341.673 50.5012C341.682 50.4985 341.681 50.5 341.672 50.5C341.663 50.5 341.662 50.4985 341.671 50.5012C341.677 50.5028 341.69 50.5069 341.708 50.5162C341.725 50.5253 341.754 50.543 341.786 50.5744L341.078 51.2816C341.185 51.388 341.31 51.438 341.397 51.4628C341.49 51.4894 341.585 51.5 341.672 51.5C341.759 51.5 341.854 51.4894 341.947 51.4628C342.034 51.438 342.159 51.388 342.266 51.2816L341.558 50.5744ZM343.574 48.5584L341.558 50.5744L342.266 51.2816L344.282 49.2656L343.574 48.5584ZM343.574 48.7856C343.543 48.7542 343.525 48.725 343.516 48.7075C343.507 48.6896 343.503 48.6767 343.501 48.6714C343.499 48.662 343.5 48.6629 343.5 48.672C343.5 48.6811 343.499 48.682 343.501 48.6726C343.503 48.6673 343.507 48.6544 343.516 48.6365C343.525 48.619 343.543 48.5899 343.574 48.5585L344.282 49.2656C344.388 49.1591 344.438 49.034 344.463 48.9474C344.489 48.854 344.5 48.7589 344.5 48.672C344.5 48.5851 344.489 48.49 344.463 48.3966C344.438 48.31 344.388 48.1849 344.282 48.0784L343.574 48.7856ZM341.942 47.1536L343.574 48.7856L344.282 48.0784L342.65 46.4464L341.942 47.1536ZM341.452 44.683C341.077 45.5581 341.33 46.541 341.942 47.1536L342.65 46.4464C342.302 46.099 342.171 45.5459 342.372 45.077L341.452 44.683ZM343.544 43.324C342.58 43.324 341.821 43.8235 341.452 44.683L342.372 45.077C342.579 44.5925 342.972 44.324 343.544 44.324V43.324ZM345.752 43.324H343.544V44.324H345.752V43.324Z" fill="#CDD0E3"/>
<path fill-rule="evenodd" clip-rule="evenodd" d="M330.968 42C330.968 39.792 332.792 37.968 335 37.968C337.208 37.968 339.032 39.792 339.032 42C339.032 44.208 337.208 46.032 335 46.032C332.792 46.032 330.968 44.208 330.968 42ZM331.928 42C331.928 43.632 333.272 45.072 335 45.072C336.728 45.072 338.072 43.632 338.072 42C338.072 40.368 336.632 38.928 335 38.928C333.368 38.928 331.928 40.368 331.928 42Z" fill="#CDD0E3"/>
<path d="M335 37.68C332.633 37.68 330.68 39.633 330.68 42H331.256C331.256 39.9511 332.951 38.256 335 38.256V37.68ZM339.32 42C339.32 39.633 337.367 37.68 335 37.68V38.256C337.049 38.256 338.744 39.9511 338.744 42H339.32ZM335 46.32C337.367 46.32 339.32 44.3671 339.32 42H338.744C338.744 44.049 337.049 45.744 335 45.744V46.32ZM330.68 42C330.68 44.3671 332.633 46.32 335 46.32V45.744C332.951 45.744 331.256 44.049 331.256 42H330.68ZM335 44.784C333.437 44.784 332.216 43.4788 332.216 42H331.64C331.64 43.7852 333.107 45.36 335 45.36V44.784ZM337.784 42C337.784 43.4788 336.563 44.784 335 44.784V45.36C336.893 45.36 338.36 43.7852 338.36 42H337.784ZM335 39.216C336.473 39.216 337.784 40.5271 337.784 42H338.36C338.36 40.209 336.791 38.64 335 38.64V39.216ZM332.216 42C332.216 40.5271 333.527 39.216 335 39.216V38.64C333.209 38.64 331.64 40.209 331.64 42H332.216Z" fill="#CDD0E3"/>
<path d="M147.55 33.4268V43.4661C147.55 44.3279 147.276 45.1672 146.768 45.8625C146.26 46.5579 145.545 47.0732 144.725 47.3339C143.906 47.5946 143.025 47.5872 142.21 47.3128C141.395 47.0383 140.689 46.511 140.193 45.8073C139.696 45.1035 139.437 44.2597 139.451 43.3981C139.464 42.5364 139.752 41.7015 140.27 41.0143C140.789 40.327 141.512 39.8231 142.336 39.5753C143.159 39.3275 144.04 39.3488 144.85 39.6361V30C151.672 30.678 157 36.4489 157 43.4661C157 50.9409 150.956 56.9999 143.5 56.9999C136.044 56.9999 130 50.9409 130 43.4661C130 36.4489 135.328 30.678 142.15 30V32.723C139.427 33.0704 136.937 34.4443 135.188 36.5655C133.439 38.6868 132.561 41.3961 132.733 44.1429C132.905 46.8896 134.114 49.4677 136.114 51.3531C138.114 53.2385 140.755 54.2898 143.5 54.2932C146.007 54.2946 148.437 53.4213 150.373 51.8231C152.308 50.225 153.628 48.0015 154.107 45.5341C154.586 43.0666 154.194 40.5091 152.997 38.3C151.801 36.0909 149.875 34.368 147.55 33.4268Z" fill="#CDD0E3"/>
<path d="M247.275 32.6924C245.167 32.6924 243.448 34.4115 243.448 36.5197C243.448 38.6279 245.167 40.347 247.275 40.347C249.383 40.347 251.102 38.6279 251.102 36.5197C251.102 34.4115 249.383 32.6924 247.275 32.6924Z" stroke="#CDD0E3" stroke-width="2"/>
<path d="M237.045 31.1007C234.313 31.1007 232.087 33.3268 232.087 36.0589C232.087 38.791 234.313 41.0172 237.045 41.0172C239.777 41.0172 242.003 38.791 242.003 36.0589C242.003 33.3268 239.777 31.1007 237.045 31.1007Z" stroke="#CDD0E3" stroke-width="2"/>
<path d="M251.896 42.3638L251.896 42.3638C250.485 41.3832 248.539 40.7914 246.424 40.7914C244.31 40.7914 242.363 41.3832 240.953 42.3638L240.953 42.3638C239.551 43.338 238.639 44.7116 238.639 46.2506V50.4125V51.4125H239.639H252.21C253.314 51.4125 254.21 50.5171 254.21 49.4125V46.2506C254.21 44.7116 253.297 43.338 251.896 42.3638Z" stroke="#CDD0E3" stroke-width="2"/>
<path d="M244.593 43.56L244.593 43.5599C242.667 42.4281 239.997 41.7383 237.082 41.7383C234.166 41.7383 231.497 42.4281 229.571 43.5599L229.571 43.56C227.674 44.6746 226.383 46.2742 226.383 48.1265V52.1555C226.383 53.2601 227.279 54.1555 228.383 54.1555H245.781C246.885 54.1555 247.781 53.2601 247.781 52.1555V48.1265C247.781 46.2742 246.49 44.6746 244.593 43.56Z" fill="white" stroke="#CDD0E3" stroke-width="2"/>
<path fill-rule="evenodd" clip-rule="evenodd" d="M62.6705 39.1403L54.1535 30.5816C51.0905 27.5189 46.1404 27.5189 43.0774 30.5816L34.5604 39.1403C34.2861 39.414 34.2037 39.8273 34.3519 40.186C34.5001 40.5448 34.8495 40.778 35.2361 40.7759H36.6794V50.1062C36.6851 53.8876 39.7341 56.9516 43.4971 56.9572H44.9609C45.4884 56.9516 45.913 56.5203 45.913 55.9903V48.1311H51.3179V55.9903C51.3179 56.5203 51.7425 56.9516 52.27 56.9572H53.7338C57.4968 56.9516 60.5458 53.8876 60.5515 50.1062V40.7759H61.9948C62.3814 40.778 62.7308 40.5448 62.879 40.186C63.0272 39.8273 62.9448 39.414 62.6705 39.1403ZM44.4262 31.9416C45.536 30.8247 47.0423 30.1971 48.613 30.1971C50.1837 30.1971 51.69 30.8247 52.7998 31.9416L59.6789 38.8544H37.5471L44.4262 31.9416ZM53.7463 55.0348C56.452 55.0291 58.644 52.8263 58.6496 50.1073V40.7771H38.6062V50.1073C38.6118 52.8263 40.8038 55.0291 43.5095 55.0348H44.0111V47.1653C44.0168 46.6353 44.4459 46.2086 44.9734 46.2086H52.2824C52.8099 46.2086 53.2391 46.6353 53.2447 47.1653V55.0348H53.7463Z" fill="#371B34"/>
<path d="M62.6705 39.1403L54.1535 30.5816C51.0905 27.5189 46.1404 27.5189 43.0774 30.5816L34.5604 39.1403C34.2861 39.414 34.2037 39.8273 34.3519 40.186C34.5001 40.5448 34.8495 40.778 35.2361 40.7759H36.6794V50.1062C36.6851 53.8876 39.7341 56.9516 43.4971 56.9572H44.9609C45.4884 56.9516 45.913 56.5203 45.913 55.9903V48.1311H51.3179V55.9903C51.3179 56.5203 51.7425 56.9516 52.27 56.9572H53.7338C57.4968 56.9516 60.5458 53.8876 60.5515 50.1062V40.7759H61.9948C62.3814 40.778 62.7308 40.5448 62.879 40.186C63.0272 39.8273 62.9448 39.414 62.6705 39.1403Z" fill="#371B34"/>
</svg>
