<svg width="428" height="69" viewBox="0 0 428 69" fill="none" xmlns="http://www.w3.org/2000/svg">
<rect width="428" height="69" rx="20" fill="white"/>
<path d="M369 18C370.857 18 372.637 18.7375 373.95 20.0503C375.263 21.363 376 23.1435 376 25C376 26.8565 375.263 28.637 373.95 29.9497C372.637 31.2625 370.857 32 369 32C367.143 32 365.363 31.2625 364.05 29.9497C362.737 28.637 362 26.8565 362 25C362 23.1435 362.737 21.363 364.05 20.0503C365.363 18.7375 367.143 18 369 18ZM369 35.5C376.735 35.5 383 38.6325 383 42.5V46H355V42.5C355 38.6325 361.265 35.5 369 35.5Z" fill="#CD2237"/>
<g clip-path="url(#clip0_3_277)">
<path d="M295.5 48.75C297.288 48.75 298.75 47.2875 298.75 45.5H292.25C292.25 47.2875 293.713 48.75 295.5 48.75ZM305.25 39V30.875C305.25 25.8863 302.601 21.71 297.938 20.605V19.5C297.938 18.1513 296.849 17.0625 295.5 17.0625C294.151 17.0625 293.063 18.1513 293.063 19.5V20.605C288.415 21.71 285.75 25.87 285.75 30.875V39L282.5 42.25V43.875H308.5V42.25L305.25 39ZM302 40.625H289V30.875C289 26.845 291.454 23.5625 295.5 23.5625C299.546 23.5625 302 26.845 302 30.875V40.625Z" fill="#CD2237"/>
</g>
<g clip-path="url(#clip1_3_277)">
<path d="M63 24.4833L71.3333 31.9833V45H68V35H58V45H54.6666V31.9833L63 24.4833M63 20L46.3333 35H51.3333V48.3333H61.3333V38.3333H64.6666V48.3333H74.6666V35H79.6666L63 20Z" fill="#CD2237"/>
</g>
<g clip-path="url(#clip2_3_277)">
<path d="M119.667 29.3334H126.333V22.6667H119.667V29.3334ZM129.667 49.3334H136.333V42.6667H129.667V49.3334ZM119.667 49.3334H126.333V42.6667H119.667V49.3334ZM119.667 39.3334H126.333V32.6667H119.667V39.3334ZM129.667 39.3334H136.333V32.6667H129.667V39.3334ZM139.667 22.6667V29.3334H146.333V22.6667H139.667ZM129.667 29.3334H136.333V22.6667H129.667V29.3334ZM139.667 39.3334H146.333V32.6667H139.667V39.3334ZM139.667 49.3334H146.333V42.6667H139.667V49.3334Z" fill="#CD2237"/>
</g>
<defs>
<clipPath id="clip0_3_277">
<rect width="39" height="39" fill="white" transform="translate(276 13)"/>
</clipPath>
<clipPath id="clip1_3_277">
<rect width="40" height="40" fill="white" transform="translate(43 15)"/>
</clipPath>
<clipPath id="clip2_3_277">
<rect width="40" height="40" fill="white" transform="translate(113 16)"/>
</clipPath>
</defs>
</svg>
