<svg width="463" height="69" viewBox="0 0 463 69" fill="none" xmlns="http://www.w3.org/2000/svg">
<rect width="463" height="69" rx="20" fill="white"/>
<path d="M399.175 18C401.184 18 403.11 18.7375 404.53 20.0503C405.95 21.363 406.748 23.1435 406.748 25C406.748 26.8565 405.95 28.637 404.53 29.9497C403.11 31.2625 401.184 32 399.175 32C397.167 32 395.241 31.2625 393.821 29.9497C392.401 28.637 391.603 26.8565 391.603 25C391.603 23.1435 392.401 21.363 393.821 20.0503C395.241 18.7375 397.167 18 399.175 18ZM399.175 35.5C407.543 35.5 414.32 38.6325 414.32 42.5V46H384.03V42.5C384.03 38.6325 390.808 35.5 399.175 35.5Z" fill="#CD2237"/>
<g clip-path="url(#clip0_3_142)">
<path d="M319.665 48.75C321.598 48.75 323.18 47.2875 323.18 45.5H316.149C316.149 47.2875 317.731 48.75 319.665 48.75ZM330.212 39V30.875C330.212 25.8863 327.347 21.71 322.302 20.605V19.5C322.302 18.1513 321.124 17.0625 319.665 17.0625C318.206 17.0625 317.028 18.1513 317.028 19.5V20.605C312 21.71 309.117 25.87 309.117 30.875V39L305.602 42.25V43.875H333.728V42.25L330.212 39ZM326.696 40.625H312.633V30.875C312.633 26.845 315.288 23.5625 319.665 23.5625C324.042 23.5625 326.696 26.845 326.696 30.875V40.625Z" fill="#CD2237"/>
</g>
<g clip-path="url(#clip1_3_142)">
<path d="M68.1519 24.4833L77.1667 31.9833V45H73.5608V35H62.743V45H59.1371V31.9833L68.1519 24.4833M68.1519 20L50.1223 35H55.5312V48.3333H66.3489V38.3333H69.9548V48.3333H80.7726V35H86.1815L68.1519 20Z" fill="#CD2237"/>
</g>
<g clip-path="url(#clip2_3_142)">
<path d="M129.453 29.3334H136.664V22.6667H129.453V29.3334ZM140.27 49.3334H147.482V42.6667H140.27V49.3334ZM129.453 49.3334H136.664V42.6667H129.453V49.3334ZM129.453 39.3334H136.664V32.6667H129.453V39.3334ZM140.27 39.3334H147.482V32.6667H140.27V39.3334ZM151.088 22.6667V29.3334H158.3V22.6667H151.088ZM140.27 29.3334H147.482V22.6667H140.27V29.3334ZM151.088 39.3334H158.3V32.6667H151.088V39.3334ZM151.088 49.3334H158.3V42.6667H151.088V49.3334Z" fill="#CD2237"/>
</g>
<defs>
<clipPath id="clip0_3_142">
<rect width="42.1892" height="39" fill="white" transform="translate(298.57 13)"/>
</clipPath>
<clipPath id="clip1_3_142">
<rect width="43.271" height="40" fill="white" transform="translate(46.5164 15)"/>
</clipPath>
<clipPath id="clip2_3_142">
<rect width="43.271" height="40" fill="white" transform="translate(122.241 16)"/>
</clipPath>
</defs>
</svg>
