<svg width="103" height="13" viewBox="0 0 103 13" fill="none" xmlns="http://www.w3.org/2000/svg">
<path opacity="0.35" d="M70.8345 0.527543H95.8308C97.7486 0.527543 99.3032 2.08221 99.3032 4V9C99.3032 10.9178 97.7486 12.4725 95.8308 12.4725H70.8345C68.9167 12.4725 67.362 10.9178 67.362 9V4C67.362 2.08221 68.9167 0.527543 70.8345 0.527543Z" stroke="black" stroke-width="1.05509"/>
<path opacity="0.4" d="M101.151 5V9.22034C102.271 8.86291 103 8.0314 103 7.11017C103 6.18894 102.271 5.35744 101.151 5" fill="black"/>
<path d="M69.4742 4C69.4742 2.89543 70.3696 2 71.4742 2H95.1911C96.2957 2 97.1911 2.89543 97.1911 4V9C97.1911 10.1046 96.2957 11 95.1911 11H71.4742C70.3696 11 69.4742 10.1046 69.4742 9V4Z" fill="black"/>
<path fill-rule="evenodd" clip-rule="evenodd" d="M46.3774 3.58753C49.6329 3.58764 52.7639 4.55505 55.1233 6.28982C55.3009 6.42375 55.5849 6.42206 55.7599 6.28603L57.4582 4.96045C57.5468 4.89146 57.5962 4.798 57.5955 4.70076C57.5948 4.60353 57.544 4.51052 57.4543 4.44234C51.2617 -0.147446 41.4921 -0.147446 35.2995 4.44234C35.2098 4.51047 35.1589 4.60345 35.158 4.70069C35.1572 4.79792 35.2065 4.89141 35.2951 4.96045L36.9939 6.28603C37.1688 6.42226 37.453 6.42396 37.6305 6.28982C39.9902 4.55494 43.1216 3.58752 46.3774 3.58753ZM46.4242 7.67235C48.2128 7.67227 49.9377 8.18644 51.2636 9.11497C51.4429 9.24674 51.7254 9.24389 51.9002 9.10853L53.5966 7.78295C53.6859 7.71342 53.7355 7.61909 53.7342 7.52108C53.7329 7.42306 53.6809 7.32954 53.5897 7.26142C49.5522 4.35683 43.2996 4.35683 39.262 7.26142C39.1708 7.32953 39.1188 7.42311 39.1176 7.52115C39.1164 7.6192 39.1661 7.71352 39.2557 7.78295L40.9516 9.10853C41.1264 9.24389 41.4089 9.24674 41.5882 9.11497C42.9132 8.18706 44.6367 7.67293 46.4242 7.67235ZM49.8738 10.3427C49.8764 10.441 49.8264 10.5357 49.7357 10.6046L46.8013 12.8948C46.7153 12.9621 46.598 13 46.4756 13C46.3533 13 46.236 12.9621 46.15 12.8948L43.2151 10.6046C43.1244 10.5357 43.0746 10.4409 43.0772 10.3426C43.0799 10.2443 43.1349 10.1512 43.2293 10.0853C45.1033 8.8595 47.848 8.8595 49.722 10.0853C49.8163 10.1513 49.8712 10.2444 49.8738 10.3427Z" fill="black"/>
<path d="M14.0403 4C14.0403 3.44772 14.6312 3 15.3602 3H16.68C17.409 3 17.9999 3.44772 17.9999 4V12C17.9999 12.5523 17.409 13 16.68 13H15.3602C14.6312 13 14.0403 12.5523 14.0403 12V4Z" fill="black"/>
<path d="M20.6396 2C20.6396 1.44772 21.2305 1 21.9594 1H23.2793C24.0082 1 24.5991 1.44772 24.5991 2V12C24.5991 12.5523 24.0082 13 23.2793 13H21.9594C21.2305 13 20.6396 12.5523 20.6396 12V2Z" fill="black"/>
<path d="M7.44106 7.5C7.44106 6.94772 8.03198 6.5 8.76091 6.5H10.0808C10.8097 6.5 11.4006 6.94772 11.4006 7.5V12C11.4006 12.5523 10.8097 13 10.0808 13H8.76091C8.03198 13 7.44106 12.5523 7.44106 12V7.5Z" fill="black"/>
<path d="M0.841797 10C0.841797 9.44772 1.43272 9 2.16165 9H3.4815C4.21044 9 4.80136 9.44772 4.80136 10V12C4.80136 12.5523 4.21044 13 3.4815 13H2.16165C1.43272 13 0.841797 12.5523 0.841797 12V10Z" fill="black"/>
</svg>
