<svg width="90" height="13" viewBox="0 0 90 13" fill="none" xmlns="http://www.w3.org/2000/svg">
<path opacity="0.35" d="M62.233 0.527543H83.2162C85.134 0.527543 86.6887 2.08221 86.6887 4V9C86.6887 10.9178 85.134 12.4725 83.2162 12.4725H62.233C60.3152 12.4725 58.7605 10.9178 58.7605 9V4C58.7605 2.08221 60.3152 0.527543 62.233 0.527543Z" stroke="black" stroke-width="1.05509"/>
<path opacity="0.4" d="M88.3755 5V9.22034C89.3599 8.86291 90 8.0314 90 7.11017C90 6.18894 89.3599 5.35744 88.3755 5" fill="black"/>
<path d="M60.5516 4C60.5516 2.89543 61.4471 2 62.5516 2H82.8976C84.0021 2 84.8976 2.89543 84.8976 4V9C84.8976 10.1046 84.0021 11 82.8976 11H62.5516C61.4471 11 60.5516 10.1046 60.5516 9V4Z" fill="black"/>
<path fill-rule="evenodd" clip-rule="evenodd" d="M40.2639 3.58753C43.1235 3.58764 45.8737 4.55505 47.9461 6.28982C48.1022 6.42375 48.3516 6.42206 48.5053 6.28603L49.9971 4.96045C50.0749 4.89146 50.1183 4.798 50.1177 4.70076C50.117 4.60353 50.0724 4.51052 49.9937 4.44234C44.5542 -0.147446 35.9728 -0.147446 30.5333 4.44234C30.4545 4.51047 30.4098 4.60345 30.4091 4.70069C30.4083 4.79792 30.4517 4.89141 30.5294 4.96045L32.0216 6.28603C32.1752 6.42226 32.4249 6.42396 32.5808 6.28982C34.6535 4.55494 37.4041 3.58752 40.2639 3.58753ZM40.305 7.67235C41.8761 7.67227 43.3912 8.18644 44.5558 9.11497C44.7133 9.24674 44.9615 9.24389 45.115 9.10853L46.6051 7.78295C46.6836 7.71342 46.7271 7.61909 46.726 7.52108C46.7248 7.42306 46.6791 7.32954 46.5991 7.26142C43.0526 4.35683 37.5604 4.35683 34.0139 7.26142C33.9338 7.32953 33.8881 7.42311 33.8871 7.52115C33.886 7.6192 33.9297 7.71352 34.0083 7.78295L35.498 9.10853C35.6515 9.24389 35.8997 9.24674 36.0572 9.11497C37.221 8.18706 38.7349 7.67293 40.305 7.67235ZM43.3351 10.3427C43.3373 10.441 43.2935 10.5357 43.2138 10.6046L40.6363 12.8948C40.5607 12.9621 40.4577 13 40.3502 13C40.2427 13 40.1397 12.9621 40.0642 12.8948L37.4862 10.6046C37.4066 10.5357 37.3628 10.4409 37.3651 10.3426C37.3675 10.2443 37.4158 10.1512 37.4987 10.0853C39.1448 8.8595 41.5556 8.8595 43.2017 10.0853C43.2845 10.1513 43.3328 10.2444 43.3351 10.3427Z" fill="black"/>
<path d="M11.8598 4C11.8598 3.44772 12.3788 3 13.0191 3H14.1784C14.8187 3 15.3378 3.44772 15.3378 4V12C15.3378 12.5523 14.8187 13 14.1784 13H13.0191C12.3788 13 11.8598 12.5523 11.8598 12V4Z" fill="black"/>
<path d="M17.6564 2C17.6564 1.44772 18.1755 1 18.8158 1H19.9751C20.6154 1 21.1344 1.44772 21.1344 2V12C21.1344 12.5523 20.6154 13 19.9751 13H18.8158C18.1755 13 17.6564 12.5523 17.6564 12V2Z" fill="black"/>
<path d="M6.06313 7.5C6.06313 6.94772 6.58218 6.5 7.22246 6.5H8.38179C9.02207 6.5 9.54112 6.94772 9.54112 7.5V12C9.54112 12.5523 9.02207 13 8.38179 13H7.22246C6.58218 13 6.06313 12.5523 6.06313 12V7.5Z" fill="black"/>
<path d="M0.266479 10C0.266479 9.44772 0.785529 9 1.42581 9H2.58514C3.22542 9 3.74447 9.44772 3.74447 10V12C3.74447 12.5523 3.22542 13 2.58514 13H1.42581C0.785529 13 0.266479 12.5523 0.266479 12V10Z" fill="black"/>
</svg>
