<svg width="90" height="13" viewBox="0 0 90 13" fill="none" xmlns="http://www.w3.org/2000/svg">
<path opacity="0.35" d="M62.2332 0.527543H83.2164C85.1342 0.527543 86.6889 2.08221 86.6889 4V9C86.6889 10.9178 85.1342 12.4725 83.2164 12.4725H62.2332C60.3154 12.4725 58.7607 10.9178 58.7607 9V4C58.7607 2.08221 60.3154 0.527543 62.2332 0.527543Z" stroke="black" stroke-width="1.05509"/>
<path opacity="0.4" d="M88.3757 5V9.22034C89.3601 8.86291 90.0002 8.0314 90.0002 7.11017C90.0002 6.18894 89.3601 5.35744 88.3757 5" fill="black"/>
<path d="M60.5518 4C60.5518 2.89543 61.4472 2 62.5518 2H82.8977C84.0023 2 84.8977 2.89543 84.8977 4V9C84.8977 10.1046 84.0023 11 82.8977 11H62.5518C61.4472 11 60.5518 10.1046 60.5518 9V4Z" fill="black"/>
<path fill-rule="evenodd" clip-rule="evenodd" d="M40.264 3.58753C43.1236 3.58764 45.8738 4.55505 47.9462 6.28982C48.1023 6.42375 48.3517 6.42206 48.5054 6.28603L49.9972 4.96045C50.075 4.89146 50.1184 4.798 50.1178 4.70076C50.1171 4.60353 50.0725 4.51052 49.9938 4.44234C44.5543 -0.147446 35.9729 -0.147446 30.5334 4.44234C30.4546 4.51047 30.4099 4.60345 30.4092 4.70069C30.4085 4.79792 30.4518 4.89141 30.5295 4.96045L32.0218 6.28603C32.1754 6.42226 32.425 6.42396 32.581 6.28982C34.6537 4.55494 37.4042 3.58752 40.264 3.58753ZM40.3051 7.67235C41.8763 7.67227 43.3913 8.18644 44.5559 9.11497C44.7135 9.24674 44.9616 9.24389 45.1151 9.10853L46.6052 7.78295C46.6837 7.71342 46.7272 7.61909 46.7261 7.52108C46.725 7.42306 46.6793 7.32954 46.5992 7.26142C43.0527 4.35683 37.5605 4.35683 34.0141 7.26142C33.9339 7.32953 33.8882 7.42311 33.8872 7.52115C33.8861 7.6192 33.9298 7.71352 34.0085 7.78295L35.4981 9.10853C35.6517 9.24389 35.8998 9.24674 36.0573 9.11497C37.2211 8.18706 38.735 7.67293 40.3051 7.67235ZM43.3352 10.3427C43.3375 10.441 43.2936 10.5357 43.2139 10.6046L40.6364 12.8948C40.5608 12.9621 40.4578 13 40.3503 13C40.2428 13 40.1398 12.9621 40.0643 12.8948L37.4863 10.6046C37.4067 10.5357 37.3629 10.4409 37.3653 10.3426C37.3676 10.2443 37.4159 10.1512 37.4988 10.0853C39.1449 8.8595 41.5558 8.8595 43.2018 10.0853C43.2847 10.1513 43.3329 10.2444 43.3352 10.3427Z" fill="black"/>
<path d="M11.8599 4C11.8599 3.44772 12.379 3 13.0192 3H14.1786C14.8188 3 15.3379 3.44772 15.3379 4V12C15.3379 12.5523 14.8188 13 14.1786 13H13.0192C12.379 13 11.8599 12.5523 11.8599 12V4Z" fill="black"/>
<path d="M17.6566 2C17.6566 1.44772 18.1756 1 18.8159 1H19.9752C20.6155 1 21.1345 1.44772 21.1345 2V12C21.1345 12.5523 20.6155 13 19.9752 13H18.8159C18.1756 13 17.6566 12.5523 17.6566 12V2Z" fill="black"/>
<path d="M6.06325 7.5C6.06325 6.94772 6.5823 6.5 7.22258 6.5H8.38191C9.02219 6.5 9.54124 6.94772 9.54124 7.5V12C9.54124 12.5523 9.02219 13 8.38191 13H7.22258C6.5823 13 6.06325 12.5523 6.06325 12V7.5Z" fill="black"/>
<path d="M0.266602 10C0.266602 9.44772 0.785651 9 1.42593 9H2.58526C3.22554 9 3.74459 9.44772 3.74459 10V12C3.74459 12.5523 3.22554 13 2.58526 13H1.42593C0.785651 13 0.266602 12.5523 0.266602 12V10Z" fill="black"/>
</svg>
